<svg width="12" height="11" viewBox="0 0 12 11" fill="none" xmlns="http://www.w3.org/2000/svg">
<path d="M4.81704 0.147511L0 4.98962L4.81704 9.83172C4.86055 9.88885 4.91582 9.93597 4.97911 9.96988C5.04241 10.0038 5.11225 10.0237 5.18392 10.0283C5.25558 10.0329 5.32739 10.022 5.39448 9.99638C5.46157 9.97079 5.52238 9.93108 5.57279 9.87994C5.62321 9.82881 5.66204 9.76743 5.68667 9.69998C5.71131 9.63253 5.72116 9.56057 5.71556 9.48898C5.70997 9.41739 5.68905 9.34784 5.65424 9.28504C5.61943 9.22223 5.57153 9.16764 5.51378 9.12496L1.90977 5.49087H11.4987C11.6317 5.49087 11.7592 5.43806 11.8532 5.34406C11.9472 5.25005 12 5.12256 12 4.98962C12 4.85668 11.9472 4.72918 11.8532 4.63518C11.7592 4.54117 11.6317 4.48836 11.4987 4.48836H1.90977L5.51378 0.854279C5.60751 0.759891 5.6599 0.632137 5.65943 0.499123C5.65896 0.366108 5.60567 0.238729 5.51128 0.145005C5.41689 0.0512819 5.28914 -0.00110722 5.15612 -0.000637054C5.02311 -0.000166893 4.89573 0.0531244 4.802 0.147511H4.81704Z" fill="#FDFDFD"/>
</svg>
