<svg width="12" height="11" viewBox="0 0 12 11" fill="none" xmlns="http://www.w3.org/2000/svg">
<path d="M7.18296 9.88179L12 5.03968L7.18296 0.197574C7.13945 0.140444 7.08418 0.0933285 7.02089 0.059417C6.95759 0.0255054 6.88775 0.00558944 6.81608 0.00101718C6.74442 -0.00355507 6.67261 0.0073234 6.60552 0.0329158C6.53843 0.0585082 6.47762 0.0982171 6.42721 0.149354C6.37679 0.200492 6.33796 0.261864 6.31333 0.329315C6.28869 0.396766 6.27884 0.468722 6.28444 0.540312C6.29003 0.611902 6.31095 0.681454 6.34576 0.744259C6.38057 0.807064 6.42847 0.861657 6.48622 0.90434L10.0902 4.53843H0.501253C0.368313 4.53843 0.240817 4.59124 0.146814 4.68524C0.0528107 4.77924 0 4.90674 0 5.03968C0 5.17262 0.0528107 5.30012 0.146814 5.39412C0.240817 5.48812 0.368313 5.54093 0.501253 5.54093H10.0902L6.48622 9.17502C6.39249 9.26941 6.3401 9.39716 6.34057 9.53017C6.34104 9.66319 6.39433 9.79057 6.48872 9.88429C6.58311 9.97801 6.71086 10.0304 6.84388 10.0299C6.97689 10.0295 7.10427 9.97617 7.198 9.88179H7.18296Z" fill="#FDFDFD"/>
</svg>
