<svg width="279" height="22" viewBox="0 0 279 22" fill="none" xmlns="http://www.w3.org/2000/svg">
<path d="M0 21.6174V0.350724H9.08994C12.6402 0.350724 14.8132 2.58261 14.8132 5.77102C14.8132 8.44928 13.0993 10.2348 11.2323 10.6493C13.4054 11 15.2111 13.3275 15.2111 15.8783C15.2111 19.2899 13.0381 21.6174 9.30418 21.6174H0ZM2.54031 9.56522H8.66146C10.9569 9.56522 12.1811 8.09855 12.1811 6.15362C12.1811 4.24058 10.9569 2.71015 8.66146 2.71015H2.54031V9.56522ZM2.54031 19.258H8.78389C11.1711 19.258 12.579 17.8551 12.579 15.5913C12.579 13.6464 11.2936 11.9246 8.78389 11.9246H2.54031V19.258ZM19.2482 21.6174V0.350724H32.6229V2.71015H21.7885V9.56522H32.4087V11.9246H21.7885V19.258H32.6229V21.6174H19.2482ZM51.119 21.6174L39.2134 4.46377V21.6174H36.6731V0.350724H39.2746L51.0272 17.1536V0.350724H53.5675V21.6174H51.119ZM67.9217 22C62.1372 22 57.5159 17.5362 57.5159 11C57.5159 4.46377 62.1372 0 67.9217 0C71.625 0 74.1346 1.81739 75.7568 4.2087L73.6144 5.45217C72.4513 3.66667 70.3395 2.35942 67.9217 2.35942C63.5451 2.35942 60.148 5.93044 60.148 11C60.148 16.0377 63.5451 19.6406 67.9217 19.6406C70.3395 19.6406 72.4513 18.3652 73.6144 16.5478L75.7874 17.7913C74.0734 20.2145 71.625 22 67.9217 22ZM93.5016 21.6174V11.8609H81.5653V21.6174H79.0251V0.350724H81.5653V9.50145H93.5016V0.350724H96.0419V21.6174H93.5016ZM118.259 21.6174V3.92174L111.312 21.6174H110.271L103.354 3.92174V21.6174H100.814V0.350724H104.456L110.791 16.5478L117.157 0.350724H120.799V21.6174H118.259ZM140.222 21.6174L138.416 16.8986H128.071L126.265 21.6174H123.45L131.652 0.350724H134.804L143.037 21.6174H140.222ZM133.244 2.71015L128.806 14.5391H137.651L133.244 2.71015ZM157.52 21.6174L152.317 13.1681H148.246V21.6174H145.706V0.350724H153.908C157.642 0.350724 160.305 2.83768 160.305 6.75942C160.305 10.5855 157.795 12.6899 155.01 12.9449L160.519 21.6174H157.52ZM157.673 6.75942C157.673 4.36812 156.02 2.71015 153.602 2.71015H148.246V10.8406H153.602C156.02 10.8406 157.673 9.15073 157.673 6.75942ZM176.661 21.6174L168.918 12.0522L166.867 14.4754V21.6174H164.327V0.350724H166.867V11.3507L175.896 0.350724H179.079L170.57 10.458L179.813 21.6174H176.661ZM208.044 21.6174V3.92174L201.097 21.6174H200.056L193.139 3.92174V21.6174H190.599V0.350724H194.241L200.576 16.5478L206.942 0.350724H210.584V21.6174H208.044ZM215.346 21.6174V0.350724H228.721V2.71015H217.887V9.56522H228.507V11.9246H217.887V19.258H228.721V21.6174H215.346ZM232.772 21.6174V0.350724H239.75C246.085 0.350724 250.217 4.97391 250.217 11C250.217 17.058 246.085 21.6174 239.75 21.6174H232.772ZM235.312 19.258H239.75C244.708 19.258 247.585 15.5594 247.585 11C247.585 6.4087 244.8 2.71015 239.75 2.71015H235.312V19.258ZM254.202 21.6174V0.350724H256.742V21.6174H254.202ZM276.184 21.6174L274.379 16.8986H264.034L262.228 21.6174H259.412L267.615 0.350724H270.767L279 21.6174H276.184ZM269.206 2.71015L264.768 14.5391H273.613L269.206 2.71015Z" fill="#202020"/>
</svg>
