<svg width="200" height="25" viewBox="0 0 200 25" fill="none" xmlns="http://www.w3.org/2000/svg">
<g clip-path="url(#clip0_3001_2796)">
<path d="M2.91797 14.4748V0.293445H9.29196C11.7815 0.293445 13.3052 1.78175 13.3052 3.90789C13.3052 5.69385 12.1034 6.88449 10.7942 7.16088C12.318 7.39476 13.5842 8.94684 13.5842 10.6478C13.5842 12.9227 12.0605 14.4748 9.44219 14.4748H2.91797ZM4.69927 6.438H8.9915C10.6011 6.438 11.4595 5.45997 11.4595 4.16302C11.4595 2.88734 10.6011 1.86679 8.9915 1.86679H4.69927V6.438ZM4.69927 12.9015H9.07735C10.7513 12.9015 11.7385 11.966 11.7385 10.4564C11.7385 9.15946 10.8372 8.01134 9.07735 8.01134H4.69927V12.9015ZM16.4151 14.4748V0.293445H25.7936V1.86679H18.1963V6.438H25.6434V8.01134H18.1963V12.9015H25.7936V14.4748H16.4151ZM38.7633 14.4748L30.4149 3.03617V14.4748H28.6336V0.293445H30.4579L38.6989 11.4982V0.293445H40.4802V14.4748H38.7633ZM50.5456 14.7299C46.4894 14.7299 43.2489 11.7534 43.2489 7.39476C43.2489 3.03617 46.4894 0.0595703 50.5456 0.0595703C53.1424 0.0595703 54.9022 1.27147 56.0396 2.86608L54.5373 3.69527C53.7218 2.50463 52.241 1.63292 50.5456 1.63292C47.4766 1.63292 45.0946 4.01419 45.0946 7.39476C45.0946 10.7541 47.4766 13.1566 50.5456 13.1566C52.241 13.1566 53.7218 12.3061 54.5373 11.0942L56.0611 11.9234C54.8593 13.5393 53.1424 14.7299 50.5456 14.7299ZM68.4826 14.4748V7.96882H60.1127V14.4748H58.3314V0.293445H60.1127V6.39547H68.4826V0.293445H70.2638V14.4748H68.4826ZM85.8428 14.4748V2.67473L80.9711 14.4748H80.2415L75.3912 2.67473V14.4748H73.6099V0.293445H76.1638L80.6063 11.0942L85.0702 0.293445H87.6241V14.4748H85.8428ZM101.243 14.4748L99.9771 11.3281H92.7232L91.457 14.4748H89.4826L95.2342 0.293445H97.4447L103.218 14.4748H101.243ZM96.3501 1.86679L93.2383 9.75478H99.4405L96.3501 1.86679ZM113.373 14.4748L109.725 8.84054H106.87V14.4748H105.089V0.293445H110.841C113.459 0.293445 115.326 1.95184 115.326 4.56699C115.326 7.11836 113.566 8.52162 111.613 8.69171L115.476 14.4748H113.373ZM113.48 4.56699C113.48 2.97239 112.321 1.86679 110.626 1.86679H106.87V7.28845H110.626C112.321 7.28845 113.48 6.1616 113.48 4.56699ZM126.795 14.4748L121.365 8.09639L119.927 9.71225V14.4748H118.146V0.293445H119.927V7.62863L126.258 0.293445H128.49L122.524 7.03332L129.005 14.4748H126.795ZM148.801 14.4748V2.67473L143.93 14.4748H143.2L138.35 2.67473V14.4748H136.568V0.293445H139.122L143.565 11.0942L148.029 0.293445H150.583V14.4748H148.801ZM153.922 14.4748V0.293445H163.3V1.86679H155.703V6.438H163.15V8.01134H155.703V12.9015H163.3V14.4748H153.922ZM166.141 14.4748V0.293445H171.034C175.476 0.293445 178.373 3.37635 178.373 7.39476C178.373 11.4344 175.476 14.4748 171.034 14.4748H166.141ZM167.922 12.9015H171.034C174.51 12.9015 176.528 10.4351 176.528 7.39476C176.528 4.33312 174.575 1.86679 171.034 1.86679H167.922V12.9015ZM181.167 14.4748V0.293445H182.949V14.4748H181.167ZM196.582 14.4748L195.316 11.3281H188.062L186.796 14.4748H184.821L190.573 0.293445H192.783L198.557 14.4748H196.582ZM191.689 1.86679L188.577 9.75478H194.779L191.689 1.86679Z" fill="#FDFDFD"/>
<path d="M64.4316 23.7894L64.822 23.2669C65.1303 23.6062 65.6234 23.9048 66.2604 23.9048C67.0001 23.9048 67.2604 23.5316 67.2604 23.2059C67.2604 22.7309 66.7399 22.5952 66.1577 22.4459C65.4248 22.2559 64.5755 22.0455 64.5755 21.1227C64.5755 20.3763 65.2399 19.8334 66.1919 19.8334C66.8974 19.8334 67.4522 20.0574 67.8563 20.4645L67.459 20.9666C67.1097 20.6002 66.6303 20.4374 66.1371 20.4374C65.6303 20.4374 65.281 20.6952 65.281 21.0752C65.281 21.4823 65.7741 21.6113 66.3426 21.7538C67.0892 21.9505 67.959 22.1812 67.959 23.1448C67.959 23.8505 67.4659 24.5087 66.233 24.5087C65.4179 24.5087 64.8221 24.2169 64.4316 23.7894ZM74.0403 22.1677C74.0403 20.8241 74.9787 19.8267 76.3417 19.8267C77.7047 19.8267 78.6431 20.8241 78.6431 22.1677C78.6431 23.5112 77.7047 24.5087 76.3417 24.5087C74.9787 24.5087 74.0403 23.5112 74.0403 22.1677ZM77.9376 22.1677C77.9376 21.1702 77.3074 20.4306 76.3417 20.4306C75.3622 20.4306 74.7458 21.1702 74.7458 22.1677C74.7458 23.1584 75.3622 23.9048 76.3417 23.9048C77.3074 23.9048 77.9376 23.1584 77.9376 22.1677ZM84.949 24.4273V19.9013H85.6339V23.8301H87.7093V24.4273H84.949ZM93.7595 22.6562V19.9013H94.4513V22.6359C94.4513 23.4094 94.8828 23.9048 95.6841 23.9048C96.4855 23.9048 96.9102 23.4094 96.9102 22.6359V19.9013H97.602V22.6495C97.602 23.7759 96.965 24.5087 95.6841 24.5087C94.4033 24.5087 93.7595 23.7691 93.7595 22.6562ZM105.218 24.4273V20.4984H103.8V19.9013H107.314V20.4984H105.903V24.4273H105.218ZM113.507 24.4273V19.9013H114.192V24.4273H113.507ZM120.501 22.1677C120.501 20.8241 121.439 19.8267 122.802 19.8267C124.165 19.8267 125.103 20.8241 125.103 22.1677C125.103 23.5112 124.165 24.5087 122.802 24.5087C121.439 24.5087 120.501 23.5112 120.501 22.1677ZM124.398 22.1677C124.398 21.1702 123.768 20.4306 122.802 20.4306C121.823 20.4306 121.206 21.1702 121.206 22.1677C121.206 23.1584 121.823 23.9048 122.802 23.9048C123.768 23.9048 124.398 23.1584 124.398 22.1677ZM134.622 24.4273L132.094 20.9531V24.4273H131.409V19.9013H132.115L134.601 23.2941V19.9013H135.286V24.4273H134.622Z" fill="#FDFDFD"/>
</g>
<defs>
<clipPath id="clip0_3001_2796">
<rect width="200" height="24.8804" fill="white"/>
</clipPath>
</defs>
</svg>
