<svg width="80" height="80" viewBox="0 0 80 80" fill="none" xmlns="http://www.w3.org/2000/svg">
<path d="M15.3333 2.36901L15 2.741V24.3783V46H16H17V24.3163V2.617L16.6533 2.30701C16.1867 1.87303 15.7333 1.90403 15.3333 2.36901Z" fill="#DCDCDC"/>
<path d="M28.6105 7.10526C27.0989 7.27513 23.5563 7.86199 23.0997 8.03187C22.8635 8.12453 23.0367 8.1863 23.7295 8.26352C31.8854 9.20558 38.5771 11.1051 45.3002 14.41C52.7004 18.0393 59.7069 23.7379 64.6824 30.1779L65.6428 31.4288L64.0211 32.4636C62.6512 33.3284 62.3836 33.56 62.3836 33.8844C62.3836 34.116 62.5253 34.3631 62.7457 34.5021C63.3125 34.8727 75.6094 40 75.9243 40C76.5699 40 76.5856 39.7838 76.8375 32.4481C77.1052 24.8653 77.1052 24.8653 76.3494 24.8653C76.1762 24.8653 75.263 25.3595 74.3183 25.9618C73.3736 26.5487 72.5391 27.0274 72.4604 26.9965C72.3974 26.9656 71.8464 26.317 71.2323 25.5603C70.634 24.7881 69.5791 23.5835 68.902 22.8577C60.9508 14.4255 50.8582 9.05114 39.7107 7.32146C37.7898 7.02803 30.6573 6.88905 28.6105 7.10526Z" fill="#DCDCDC"/>
<path d="M23 33.6916V47.3833L24.5712 48.1696C27.2254 49.511 29.3458 51.3458 31.0085 53.7511C31.4814 54.4449 31.9085 55 31.939 55C31.9695 55 32 47.1211 32 37.5V20H27.5H23V33.6916Z" fill="#DCDCDC"/>
<path d="M38 44V59H42.5H47V44V29H42.5H38V44Z" fill="#DCDCDC"/>
<path d="M53 49V59H57.5H62V49V39H57.5H53V49Z" fill="#DCDCDC"/>
<path d="M67 53.5V59H71.5H76V53.5V48H71.5H67V53.5Z" fill="#DCDCDC"/>
<path d="M13.2923 48.281C10.4827 48.8743 8.04777 50.1701 5.9094 52.1998C4.36415 53.6517 3.45885 54.8539 2.63159 56.4932C0.00934708 61.7547 0.586865 68.1402 4.08319 72.7927C9.70228 80.2399 20.4566 81.1298 27.2307 74.6819C30.5398 71.5593 32.2255 67.2503 31.9757 62.5977C31.6011 55.5565 26.5596 49.7174 19.6137 48.281C17.7875 47.9063 15.1029 47.9063 13.2923 48.281ZM19.6137 51.1069C21.955 51.7002 23.9998 52.918 25.7323 54.7602C27.1059 56.181 27.9487 57.6173 28.6043 59.5377C29.0413 60.8179 29.1194 61.2863 29.1818 62.9724C29.2442 65.2675 29.0257 66.5946 28.2453 68.4056C25.4826 74.7911 18.2246 77.8824 11.9499 75.3688C5.22262 72.6835 2.00725 65.205 4.73875 58.6165C6.8303 53.6049 11.9031 50.4199 17.2725 50.7478C17.9592 50.7946 19.0206 50.9508 19.6137 51.1069Z" fill="#DCDCDC"/>
<path d="M15.1693 53.075C11.256 53.5336 7.72629 56.423 6.51393 60.1685C5.96146 61.8349 5.83869 64.1739 6.22235 65.825C6.72878 68.1028 8.21738 70.4571 10.0283 71.8178C15.0619 75.6244 22.2133 74.3097 25.5588 68.9742C25.789 68.6073 26.188 67.7512 26.4489 67.0633C26.8325 66.039 26.9246 65.5498 26.986 64.0516C27.1241 60.7036 26.2494 58.4104 23.9628 56.1173C22.8885 55.0471 22.3974 54.6802 21.3385 54.1604C19.2975 53.182 17.3178 52.8304 15.1693 53.075ZM17.149 55.3987C17.4252 55.6586 17.5019 55.8879 17.5019 56.4995V57.2791L18.392 57.539C19.3895 57.8295 20.5712 58.7467 20.8628 59.4806C21.093 60.0309 20.8935 60.5048 20.3257 60.7189C19.8806 60.9023 19.589 60.78 19.0366 60.1838C18.5455 59.664 18.0544 59.4041 17.2257 59.2665C15.7678 59.0372 14.1871 59.5876 13.9723 60.4131C13.7114 61.3762 14.3866 61.896 16.4891 62.4158C19.7425 63.1955 21.1851 64.3879 21.1851 66.253C21.1697 67.7206 20.0187 69.0965 18.4227 69.5399L17.5019 69.7845V70.4877C17.5019 71.4203 17.1797 71.8789 16.5198 71.8789C15.8445 71.8789 15.599 71.5579 15.5069 70.5336C15.4302 69.708 15.4148 69.6928 14.8163 69.5093C13.7728 69.2036 12.9594 68.7143 12.3762 68.0417C11.747 67.2926 11.6857 66.9257 12.1614 66.4212C12.6371 65.9167 13.0515 65.9778 13.7421 66.6811C14.4634 67.4149 15.3841 67.7512 16.6732 67.7512C18.2693 67.7512 19.19 67.2161 19.19 66.2683C19.19 65.5498 18.6069 65.0606 17.3178 64.6937C16.75 64.5255 15.8138 64.2503 15.246 64.0822C13.1282 63.4707 11.9465 62.2782 11.9465 60.7342C11.9619 59.9086 12.3456 59.0066 12.9287 58.4716C13.3431 58.0894 14.847 57.3556 15.246 57.3556C15.4609 57.3556 15.5069 57.218 15.5069 56.6065C15.5069 55.2917 16.3663 54.6649 17.149 55.3987Z" fill="#DCDCDC"/>
<path d="M34 64V65L56.2077 64.9733L78.4154 64.9333L78.7145 64.6133C79.1079 64.2133 79.0922 63.7867 78.683 63.3467L78.3682 63H56.1762H34V64Z" fill="#DCDCDC"/>
</svg>
