<svg width="79" height="80" viewBox="0 0 79 80" fill="none" xmlns="http://www.w3.org/2000/svg">
<path d="M0.375645 0.457143C-0.212246 1.14286 -0.0844434 5.37143 0.580129 5.82857C0.886854 6.05714 1.14246 6.05714 1.47474 5.82857C1.80703 5.57143 1.93483 5.02857 1.98595 3.14286C2.06264 0.8 1.83259 0 1.1169 0C0.937975 0 0.605689 0.2 0.375645 0.457143Z" fill="#DCDCDC"/>
<path d="M13.8561 9.48669C13.2043 9.82468 12.6374 10.4725 12.1839 11.3174C11.3053 13.0918 11.5321 14.3874 12.9775 15.7394L14.0262 16.7251L13.1192 23.4848C10.4834 43.3412 9.57648 50.0446 9.43477 50.7487C9.3214 51.2838 8.9813 51.65 8.35777 51.9035C4.64497 53.4525 5.52357 58.9448 9.54814 59.3391C12.269 59.5926 13.9695 57.9026 13.7711 55.1988C13.6861 53.875 13.516 53.537 12.6091 52.6921L11.5321 51.7345L11.9855 48.6081C12.2406 46.8619 13.0625 40.6374 13.8561 34.7509C15.5 22.4145 16.0951 18.1897 16.2085 18.0771C16.2652 18.0489 17.7673 22.0202 19.5812 26.9491C22.7838 35.6522 22.8405 35.9056 22.3304 36.4408C20.6299 38.2997 20.9983 41.2289 23.0956 42.5245C23.8325 42.9751 24.4277 43.0878 25.5897 43.0033L27.1202 42.9188L30.3228 46.4113C36.218 52.8047 35.7361 52.1851 35.4244 53.3962C34.9993 54.9171 35.4527 56.3254 36.6998 57.3957C37.55 58.1561 37.9185 58.2688 39.2222 58.2688C40.5543 58.2688 40.8944 58.1561 41.773 57.3957L42.7933 56.4944L50.0772 58.4096C54.0734 59.4517 59.5434 60.86 62.1792 61.536C67.6776 62.9442 68.2728 63.1695 68.2728 63.761C68.2728 65.2256 70.3984 67 72.0989 67C73.2326 67 74.8764 66.0142 75.4716 65.0003C76.1518 63.8455 76.1802 61.9303 75.5283 60.9445C74.8198 59.8742 73.4027 59.1137 72.0989 59.1137C71.0786 59.1137 70.3984 59.4236 68.8112 60.5502C68.4711 60.8037 65.9204 60.2404 56.7659 57.8745C50.389 56.2127 44.6922 54.72 44.1254 54.5792C43.2468 54.3538 43.0484 54.1848 43.0484 53.6215C43.0484 51.8753 40.0158 49.9882 38.2302 50.636C37.4367 50.8895 37.295 50.7769 33.0153 46.0733C29.4726 42.1583 28.679 41.1725 28.9057 40.7782C29.3309 39.9614 29.1891 38.187 28.594 37.2294C27.9704 36.1873 27.0918 35.5958 25.8448 35.3142C25.363 35.2297 24.8812 34.9199 24.7678 34.6664C24.6544 34.4129 23.124 30.1599 21.3384 25.2592L18.0791 16.359L18.816 15.2887C20.1764 13.289 19.6095 10.726 17.5406 9.57119C16.2368 8.83889 15.1315 8.81073 13.8561 9.48669Z" fill="#DCDCDC"/>
<path d="M0.25 9.52759C0.125 9.84276 0 10.9602 0 11.9916C0 14.0832 0.3 15 0.95 15C1.775 15 2 14.3697 2 11.9916C2 10.559 1.875 9.52759 1.7 9.32703C1.25 8.81131 0.55 8.92591 0.25 9.52759Z" fill="#DCDCDC"/>
<path d="M24.0373 13.252C24.1506 13.6503 24.6889 15.0441 25.2272 16.381C29.6186 27.2184 37.5797 35.5526 48.6855 40.9856C53.8985 43.5171 58.3182 44.9394 63.4745 45.7074L65.7976 46.0487L65.8826 48.4665C65.9393 49.8603 66.1093 50.9412 66.2793 50.9981C66.7326 51.1403 79 43.2896 79 42.8629C79 42.4078 67.6675 33.7322 67.1009 33.7322C66.5626 33.7322 66.3926 34.4149 66.3926 36.3491V38.0273L64.7777 37.8567C49.6205 36.0931 35.0582 27.3606 24.9156 13.9632C24.1506 12.9676 23.8957 12.7685 24.0373 13.252Z" fill="#DCDCDC"/>
<path d="M0.31563 18.3443C-0.155003 18.8895 -0.0806927 23.0214 0.41471 23.5666C0.860573 24.1117 0.910113 24.1117 1.52937 23.7387C1.92569 23.4805 2 23.1075 2 21.0702C2 18.66 1.77707 18 1.00919 18C0.786263 18 0.489021 18.1435 0.31563 18.3443Z" fill="#DCDCDC"/>
<path d="M0.3 28.3539C0.125 28.5604 0 29.6221 0 30.9788C0 32.9843 0.075 33.3382 0.55 33.7216C0.925 34.046 1.2 34.0755 1.55 33.8691C1.925 33.6331 2 33.2202 2 31.1557C2 28.6783 1.775 28 1 28C0.775 28 0.475 28.1475 0.3 28.3539Z" fill="#DCDCDC"/>
<path d="M0.32 37.3174C0.133333 37.5301 0 38.5634 0 40.0221C0 42.5445 0.293333 43.1523 1.38667 42.97C1.97333 42.8788 2 42.7876 2 39.9917C2 37.1351 2 37.1047 1.33333 37.0135C0.96 36.9527 0.506667 37.1047 0.32 37.3174Z" fill="#DCDCDC"/>
<path d="M0.491379 46.3537C0.00336231 46.7948 -0.0480078 47.0889 0.0290474 49.1768C0.0804176 51.0001 0.208843 51.5589 0.568434 51.8236C0.876655 52.0588 1.13351 52.0588 1.46741 51.8236C1.827 51.5589 1.92974 51.0001 1.98111 48.971C2.03248 46.7066 2.0068 46.4125 1.54447 46.1478C1.15919 45.9125 0.928025 45.9419 0.491379 46.3537Z" fill="#DCDCDC"/>
<path d="M0.367214 55.4317C-0.207482 56.1206 -0.0825481 60.3685 0.567108 60.8278C0.866949 61.0574 1.11682 61.0574 1.44164 60.8278C2.0913 60.3398 2.21623 55.8623 1.59157 55.3456C1.01687 54.8577 0.866949 54.8864 0.367214 55.4317Z" fill="#DCDCDC"/>
<path d="M0.25 65.5276C0.125 65.8428 0 66.9602 0 67.9916C0 70.0832 0.3 71 0.95 71C1.775 71 2 70.3697 2 67.9916C2 66.559 1.875 65.5276 1.7 65.327C1.25 64.8113 0.55 64.9259 0.25 65.5276Z" fill="#DCDCDC"/>
<path d="M0.3613 74.3434C-0.177431 74.887 -0.0923686 79.0072 0.474717 79.5795C1.15522 80.2376 5.35165 80.0945 5.80532 79.3506C6.37241 78.435 5.69191 77.8627 3.87723 77.7769L2.28939 77.6911V76.2032C2.28939 74.6581 1.94914 74 1.15522 74C0.900031 74 0.55978 74.1431 0.3613 74.3434Z" fill="#DCDCDC"/>
<path d="M9.32703 78.3C8.81131 78.75 8.92591 79.45 9.52759 79.75C9.84275 79.875 10.9602 80 11.9916 80C14.0832 80 15 79.7 15 79.05C15 78.225 14.3697 78 11.9916 78C10.559 78 9.52759 78.125 9.32703 78.3Z" fill="#DCDCDC"/>
<path d="M18.3443 78.3C18.1435 78.475 18 78.775 18 79C18 79.775 18.66 80 20.8981 80C22.5336 80 23.2509 79.9 23.5666 79.6C24.1117 79.15 24.1117 79.1 23.7387 78.475C23.4805 78.075 23.1075 78 21.0702 78C19.6068 78 18.5452 78.125 18.3443 78.3Z" fill="#DCDCDC"/>
<path d="M27.3539 78.3C27.1475 78.475 27 78.775 27 79C27 79.775 27.6783 80 29.9788 80C31.9843 80 32.3382 79.925 32.7216 79.45C33.046 79.075 33.0755 78.8 32.8691 78.45C32.6331 78.075 32.2202 78 30.1557 78C28.6516 78 27.5604 78.125 27.3539 78.3Z" fill="#DCDCDC"/>
<path d="M36.2037 78.1113C35.8716 78.3921 35.9622 79.3619 36.3547 79.6937C36.566 79.8724 37.6227 80 39.0417 80C41.5475 80 42.1513 79.7192 41.9702 78.6728C41.8796 78.1113 41.7287 78.0858 39.1624 78.0092C37.6529 77.9837 36.3245 78.0092 36.2037 78.1113Z" fill="#DCDCDC"/>
<path d="M46.1478 78.4555C45.9125 78.8408 45.9419 79.072 46.3537 79.5086C46.7948 79.9966 47.0889 80.048 49.1768 79.971C51.0001 79.9196 51.5589 79.7912 51.8236 79.4316C52.0588 79.1233 52.0588 78.8665 51.8236 78.5326C51.5589 78.173 51.0001 78.0703 48.971 78.0189C46.7066 77.9675 46.4125 77.9932 46.1478 78.4555Z" fill="#DCDCDC"/>
<path d="M55.2426 78.4572C54.4961 79.6689 55.4435 80.1072 58.4868 79.9783C60.6687 79.901 61.4152 79.4369 60.7836 78.5346C60.5252 78.1736 59.9797 78.0705 57.9987 78.019C55.7881 77.9674 55.501 77.9932 55.2426 78.4572Z" fill="#DCDCDC"/>
<path d="M64.327 78.3C63.8113 78.75 63.9259 79.45 64.5276 79.75C64.8428 79.875 65.9602 80 66.9916 80C69.0832 80 70 79.7 70 79.05C70 78.225 69.3697 78 66.9916 78C65.559 78 64.5276 78.125 64.327 78.3Z" fill="#DCDCDC"/>
<path d="M73.3429 78.3C73.1429 78.475 73 78.775 73 79C73 79.775 73.6571 80 75.8857 80C78.1143 80 79 79.675 79 78.9C79 78.225 78.2571 78 76 78C74.5714 78 73.5429 78.125 73.3429 78.3Z" fill="#DCDCDC"/>
</svg>
