<svg width="82" height="80" viewBox="0 0 82 80" fill="none" xmlns="http://www.w3.org/2000/svg">
<path d="M3.56724 0.615854C3.02846 1.11367 2.94339 1.44555 3.02846 3.30408C3.08518 4.8971 3.22696 5.52767 3.62396 5.79318C4.41795 6.39056 5.09852 5.66043 5.18359 4.03422C5.26866 2.7067 5.29702 2.67351 6.34622 2.67351C7.56557 2.67351 8.21778 2.04294 7.93421 1.08049C7.62228 -0.0810928 4.61645 -0.412972 3.56724 0.615854Z" fill="#DCDCDC"/>
<path d="M12.4217 0.75C11.9586 1.35 11.9007 1.6875 12.1323 2.25C12.3928 2.8875 12.7401 3 14.5924 3C16.4157 3 16.763 2.8875 16.9077 2.2875C17.284 0.675 16.5315 0 14.2451 0C13.3768 0 12.8269 0.225 12.4217 0.75Z" fill="#DCDCDC"/>
<path d="M20.4407 0.334578C20.1125 0.549471 19.9334 0.952396 20.023 1.35532C20.1125 1.97314 20.202 2 22.4996 2C24.8867 2 24.8867 2 24.9762 1.27474C25.0657 0.683779 24.9165 0.468886 24.2899 0.253993C23.1859 -0.122071 21.0673 -0.0683472 20.4407 0.334578Z" fill="#DCDCDC"/>
<path d="M29.621 0.268025C29.0839 0.45746 28.9348 0.673957 29.0243 1.24226C29.1138 2 29.1138 2 31.5007 2C33.798 2 33.8875 1.97294 33.977 1.35051C34.0665 0.944578 33.8875 0.538646 33.5593 0.322149C32.9626 -0.0837822 30.6354 -0.110844 29.621 0.268025Z" fill="#DCDCDC"/>
<path d="M37.7344 0.22876C37.151 0.418571 36.8301 1.48151 37.0927 2.3926C37.2385 2.88611 37.7052 3 39.4263 3C41.2641 3 41.6141 2.88611 41.8767 2.24076C42.3726 1.02597 41.3224 -0.0369756 39.6305 0.000986576C38.8429 0.0389488 37.9969 0.114873 37.7344 0.22876Z" fill="#DCDCDC"/>
<path d="M45.7101 0.254566C45.0519 0.480239 44.7658 1.75905 45.2236 2.47368C45.7673 3.33876 49.4587 3.07548 49.888 2.13517C50.5747 0.630687 47.9707 -0.53529 45.7101 0.254566Z" fill="#DCDCDC"/>
<path d="M54.449 0.699921C53.9572 1.34093 53.8993 1.64258 54.1308 2.24588C54.3912 2.88688 54.7384 3 56.5901 3C58.6733 3 58.7601 2.96229 58.9337 2.01964C59.1941 0.662215 58.7312 0.247447 56.7637 0.0589159C55.317 -0.0919089 54.9698 0.0212097 54.449 0.699921Z" fill="#DCDCDC"/>
<path d="M68 12.4365V22.8408L68.7812 23.0335C70.3438 23.4509 70.4375 24.0289 70.6875 33.3736L70.9062 42.1081L70.0625 42.654C69.625 42.9751 68.9688 43.1357 68.625 43.0393C68 42.8788 68 43.0393 68 57.9394V73H73H78L77.9375 37.5803L77.8438 2.19267L72.9375 2.09634L68 2V12.4365Z" fill="#DCDCDC"/>
<path d="M3.3 10.3418C3.125 10.5482 3 11.4916 3 12.494C3 14.4104 3.275 15 4.15 15C4.825 15 5 14.4988 5 12.494C5 11.639 4.925 10.7251 4.85 10.4597C4.675 9.89957 3.725 9.84061 3.3 10.3418Z" fill="#DCDCDC"/>
<path d="M52 26.5973C52 33.6139 52.1212 39.0966 52.2727 38.9987C52.7273 38.705 55.9394 34.3318 55.9394 34.0381C55.9394 33.875 55.3939 33.3854 54.7273 32.9285C53.4242 32.08 53.0303 31.1662 53.3333 29.8934C53.4545 29.2734 54.303 28.7512 57.6667 27.1847L61.8485 25.2266L61.9394 19.6133L62 14H57H52V26.5973Z" fill="#DCDCDC"/>
<path d="M3.3057 19.3551C3.12737 19.5622 3 20.5091 3 21.5447C3 23.5273 3.33117 24.1487 4.32469 23.9711C4.85966 23.8824 4.91061 23.7048 4.98703 21.8702C5.06346 19.7398 4.80871 19 4.04447 19C3.81519 19 3.48402 19.148 3.3057 19.3551Z" fill="#DCDCDC"/>
<path d="M61.7235 27.6944C58.6589 29.1552 56.1837 30.4861 56.1837 30.6484C56.2132 30.8432 56.7141 31.3301 57.3034 31.7846C57.9223 32.2391 58.4527 32.9207 58.5116 33.2778C58.6295 34.2192 56.39 37.4329 52.6771 41.6204C47.373 47.6583 42.6288 51.4563 35.7335 55.1569C31.1661 57.5915 28.7204 58.6303 24.094 60.0586L21 61L25.2727 60.8702C35.8514 60.578 46.1354 56.0009 55.2702 47.5609C56.773 46.1651 59.042 43.698 60.2796 42.0749C61.5172 40.4518 62.9906 38.634 63.4915 38.0172L64.464 36.9135L65.4364 37.5627C65.9962 37.9198 66.7919 38.4392 67.2044 38.7638L68 39.3157V35.8098C68 31.2977 67.6759 24.9677 67.4401 25.0001C67.3517 25.0326 64.7586 26.2337 61.7235 27.6944Z" fill="#DCDCDC"/>
<path d="M36 39.5849C36 51.4294 36.0312 52.1697 36.5625 51.9766C37.5 51.5903 41.75 48.8867 43.9062 47.2452L46 45.6681V36.334V27H41H36V39.5849Z" fill="#DCDCDC"/>
<path d="M3.25743 27.6189C2.85913 28.6608 2.93381 31.8873 3.40679 32.4923C3.85488 33.1309 3.90467 33.1309 4.52702 32.6939C4.92532 32.3915 5 31.9545 5 30.0724C5 28.728 4.87553 27.6189 4.70127 27.3836C4.25318 26.7787 3.55616 26.9131 3.25743 27.6189Z" fill="#DCDCDC"/>
<path d="M3.4 36.5664C3.125 36.8977 3 37.6929 3 38.8856C3 40.9729 3.325 42 3.95 42C4.75 42 5 41.2711 5 39.0182C5 36.2351 4.375 35.2743 3.4 36.5664Z" fill="#DCDCDC"/>
<path d="M20 48.5C20 54.069 20.1212 58 20.2727 58C20.7576 58 27.7879 55.7724 28.9091 55.2483L30 54.7569V46.8948V39H25H20V48.5Z" fill="#DCDCDC"/>
<path d="M59.3087 47.5811C57.8774 48.986 55.6544 50.979 54.3753 52.0245L52 53.8868V63.4271V73H56.8725C60.4964 73 61.8059 72.902 61.8972 72.5753C61.9886 72.3792 62.019 66.0735 61.9886 58.5916L61.8972 45L59.3087 47.5811Z" fill="#DCDCDC"/>
<path d="M4 63V73H9H14V63V53H9H4V63Z" fill="#DCDCDC"/>
<path d="M43.8125 59.0109C42.6875 59.5652 40.4688 60.4457 38.9062 61L36 62.0435V67.5217V73H41H46V65.5C46 61.3587 45.9688 58 45.9375 58C45.875 58.0326 44.9375 58.4565 43.8125 59.0109Z" fill="#DCDCDC"/>
<path d="M23.8671 64.2172L20 64.3414L20.0906 68.5931L20.1813 72.8448L25.1057 72.9379L30 73V68.5V64L28.8822 64.0621C28.2477 64.0931 25.9819 64.1862 23.8671 64.2172Z" fill="#DCDCDC"/>
<path d="M0 77.5V80H41H82V77.5V75H41H0V77.5Z" fill="#DCDCDC"/>
</svg>
