<svg width="20" height="20" viewBox="0 0 20 20" fill="none" xmlns="http://www.w3.org/2000/svg">
<path d="M14.7502 3.13891C16.0322 3.87914 17.0987 4.94135 17.844 6.22041C18.5894 7.49947 18.9878 8.95101 18.9997 10.4313C19.0117 11.9117 18.6368 13.3695 17.9122 14.6604C17.1876 15.9513 16.1384 17.0306 14.8685 17.7915C13.5986 18.5523 12.152 18.9683 10.6719 18.9983C9.19179 19.0282 7.72954 18.6711 6.42988 17.9623C5.13021 17.2534 4.03822 16.2175 3.26198 14.9569C2.48575 13.6963 2.0522 12.2549 2.00425 10.7753L2 10.4999L2.00425 10.2245C2.05185 8.75655 2.47902 7.32597 3.24411 6.07225C4.0092 4.81853 5.08609 3.78444 6.36981 3.07081C7.65353 2.35717 9.10026 1.98835 10.569 2.00028C12.0377 2.01222 13.4782 2.40451 14.7502 3.13891ZM10.5001 5.39991C10.2919 5.39994 10.091 5.47637 9.93538 5.61472C9.7798 5.75306 9.6804 5.94369 9.65604 6.15046L9.65009 6.24991V10.4999L9.65774 10.6113C9.67712 10.7587 9.73487 10.8985 9.8252 11.0167L9.89915 11.1017L12.4492 13.6517L12.5291 13.7214C12.6781 13.8371 12.8615 13.8998 13.0501 13.8998C13.2388 13.8998 13.4221 13.8371 13.5712 13.7214L13.6511 13.6509L13.7216 13.571C13.8373 13.4219 13.9001 13.2386 13.9001 13.0499C13.9001 12.8612 13.8373 12.6779 13.7216 12.5289L13.6511 12.449L11.3501 10.1472V6.24991L11.3442 6.15046C11.3198 5.94369 11.2204 5.75306 11.0648 5.61472C10.9092 5.47637 10.7083 5.39994 10.5001 5.39991Z" fill="#DCDCDC"/>
</svg>
