<svg width="355" height="47" viewBox="0 0 355 47" fill="none" xmlns="http://www.w3.org/2000/svg">
<path d="M5.17969 27.3442V0.55508H16.4935C20.9124 0.55508 23.617 3.36654 23.617 7.3829C23.617 10.7566 21.4838 13.0058 19.1601 13.5279C21.8647 13.9697 24.1122 16.9017 24.1122 20.1148C24.1122 24.4123 21.4076 27.3442 16.7602 27.3442H5.17969ZM8.34149 12.1624H15.9602C18.8172 12.1624 20.341 10.3148 20.341 7.86486C20.341 5.45505 18.8172 3.52719 15.9602 3.52719H8.34149V12.1624ZM8.34149 24.3721H16.1126C19.0839 24.3721 20.8362 22.6049 20.8362 19.7533C20.8362 17.3033 19.2363 15.1345 16.1126 15.1345H8.34149V24.3721ZM29.137 27.3442V0.55508H45.7839V3.52719H32.2988V12.1624H45.5173V15.1345H32.2988V24.3721H45.7839V27.3442H29.137ZM68.8052 27.3442L53.9868 5.73619V27.3442H50.825V0.55508H54.063L68.6909 21.7213V0.55508H71.8527V27.3442H68.8052ZM89.7187 27.8262C82.519 27.8262 76.7671 22.2033 76.7671 13.9697C76.7671 5.73619 82.519 0.113281 89.7187 0.113281C94.328 0.113281 97.4517 2.40261 99.4706 5.41488L96.8041 6.98126C95.3565 4.7321 92.7281 3.08539 89.7187 3.08539C84.2713 3.08539 80.0432 7.58372 80.0432 13.9697C80.0432 20.3156 84.2713 24.8541 89.7187 24.8541C92.7281 24.8541 95.3565 23.2475 96.8041 20.9582L99.5087 22.5246C97.3755 25.577 94.328 27.8262 89.7187 27.8262ZM121.557 27.3442V15.0542H106.7V27.3442H103.539V0.55508H106.7V12.082H121.557V0.55508H124.719V27.3442H121.557ZM152.371 27.3442V5.05341L143.724 27.3442H142.429L133.82 5.05341V27.3442H130.658V0.55508H135.191L143.076 20.9582L151 0.55508H155.533V27.3442H152.371ZM179.707 27.3442L177.46 21.4H164.584L162.336 27.3442H158.832L169.041 0.55508H172.965L183.212 27.3442H179.707ZM171.022 3.52719L165.498 18.4279H176.507L171.022 3.52719ZM201.237 27.3442L194.761 16.7009H189.695V27.3442H186.533V0.55508H196.742C201.39 0.55508 204.704 3.68785 204.704 8.62797C204.704 13.4476 201.58 16.0984 198.114 16.4197L204.971 27.3442H201.237ZM201.428 8.62797C201.428 5.6157 199.371 3.52719 196.361 3.52719H189.695V13.7689H196.361C199.371 13.7689 201.428 11.6402 201.428 8.62797ZM225.061 27.3442L215.424 15.2951L212.871 18.3476V27.3442H209.71V0.55508H212.871V14.4115L224.109 0.55508H228.071L217.481 13.287L228.985 27.3442H225.061ZM264.123 27.3442V5.05341L255.475 27.3442H254.18L245.571 5.05341V27.3442H242.409V0.55508H246.942L254.828 20.9582L262.751 0.55508H267.284V27.3442H264.123ZM273.212 27.3442V0.55508H289.858V3.52719H276.373V12.1624H289.592V15.1345H276.373V24.3721H289.858V27.3442H273.212ZM294.9 27.3442V0.55508H303.585C311.471 0.55508 316.613 6.37881 316.613 13.9697C316.613 21.6008 311.471 27.3442 303.585 27.3442H294.9ZM298.062 24.3721H303.585C309.756 24.3721 313.337 19.7131 313.337 13.9697C313.337 8.18617 309.871 3.52719 303.585 3.52719H298.062V24.3721ZM321.573 27.3442V0.55508H324.734V27.3442H321.573ZM348.934 27.3442L346.686 21.4H333.81L331.563 27.3442H328.058L338.267 0.55508H342.191L352.438 27.3442H348.934ZM340.248 3.52719L334.725 18.4279H345.734L340.248 3.52719Z" fill="white"/>
<path d="M114.367 44.9389L115.06 43.9519C115.607 44.5929 116.483 45.1569 117.613 45.1569C118.926 45.1569 119.388 44.4519 119.388 43.8366C119.388 42.9393 118.464 42.6829 117.431 42.4009C116.13 42.042 114.622 41.6447 114.622 39.9014C114.622 38.4914 115.802 37.4659 117.492 37.4659C118.744 37.4659 119.729 37.8889 120.446 38.658L119.741 39.6066C119.121 38.9144 118.27 38.6068 117.394 38.6068C116.495 38.6068 115.875 39.0939 115.875 39.8117C115.875 40.5808 116.75 40.8243 117.759 41.0935C119.084 41.4652 120.628 41.901 120.628 43.7212C120.628 45.0543 119.753 46.2977 117.565 46.2977C116.118 46.2977 115.06 45.7465 114.367 44.9389ZM131.423 41.8754C131.423 39.3374 133.088 37.4531 135.508 37.4531C137.927 37.4531 139.592 39.3374 139.592 41.8754C139.592 44.4134 137.927 46.2977 135.508 46.2977C133.088 46.2977 131.423 44.4134 131.423 41.8754ZM138.34 41.8754C138.34 39.9911 137.222 38.5939 135.508 38.5939C133.769 38.5939 132.675 39.9911 132.675 41.8754C132.675 43.7469 133.769 45.1569 135.508 45.1569C137.222 45.1569 138.34 43.7469 138.34 41.8754ZM150.785 46.1439V37.5941H152.001V45.0159H155.685V46.1439H150.785ZM166.424 42.7983V37.5941H167.652V42.7599C167.652 44.2211 168.418 45.1569 169.84 45.1569C171.263 45.1569 172.017 44.2211 172.017 42.7599V37.5941H173.245V42.7855C173.245 44.9133 172.114 46.2977 169.84 46.2977C167.567 46.2977 166.424 44.9005 166.424 42.7983ZM186.763 46.1439V38.7221H184.246V37.5941H190.483V38.7221H187.979V46.1439H186.763ZM201.477 46.1439V37.5941H202.692V46.1439H201.477ZM213.89 41.8754C213.89 39.3374 215.555 37.4531 217.975 37.4531C220.394 37.4531 222.059 39.3374 222.059 41.8754C222.059 44.4134 220.394 46.2977 217.975 46.2977C215.555 46.2977 213.89 44.4134 213.89 41.8754ZM220.807 41.8754C220.807 39.9911 219.689 38.5939 217.975 38.5939C216.236 38.5939 215.142 39.9911 215.142 41.8754C215.142 43.7469 216.236 45.1569 217.975 45.1569C219.689 45.1569 220.807 43.7469 220.807 41.8754ZM238.954 46.1439L234.468 39.5809V46.1439H233.252V37.5941H234.505L238.918 44.0032V37.5941H240.134V46.1439H238.954Z" fill="white"/>
</svg>
