<svg width="216" height="50" viewBox="0 0 216 50" fill="none" xmlns="http://www.w3.org/2000/svg">
<path d="M50 25.7081C50 24.0872 49.8447 22.5436 49.6117 21H26V30.3389H39.5146C38.8932 33.4262 37.1068 35.9732 34.466 37.7483V44H42.5437C47.2816 39.6779 50 33.2718 50 25.7081Z" fill="#4285F4"/>
<path d="M25.994 50C32.9401 50 38.7685 47.7863 43 44.0458L34.6966 37.8626C32.3812 39.313 29.4271 40.229 25.9142 40.229C19.2076 40.229 13.4591 35.8779 11.4631 30H3V36.3359C7.23154 44.4275 15.9341 49.9237 25.994 49.9237V50Z" fill="#34A853"/>
<path d="M11 30.3608C10.4577 28.8591 10.2254 27.1993 10.2254 25.4605C10.2254 23.7217 10.5352 22.1409 11 20.5601V14H2.71127C0.929577 17.5567 0 21.4296 0 25.5395C0 29.6495 1.00704 33.5223 2.71127 37L11 30.3608Z" fill="#FBBC04"/>
<path d="M25.8571 9.80843C29.6667 9.80843 33 11.0345 35.6984 13.4866L43 6.43678C38.5556 2.45211 32.7619 0 25.8571 0C15.8571 0 7.20635 5.51724 3 13.6398L11.4921 20C13.5556 14.0996 19.1905 9.7318 25.8571 9.80843Z" fill="#EA4335"/>
<path d="M72 20.054L80.726 25L78.3288 15.7374L86 9.53237L75.9315 8.72302L72 0L68.1644 8.72302L58 9.53237L65.6712 15.7374L63.3699 25L72 20.054Z" fill="#FBBC04"/>
<path d="M105 20.054L113.63 25L111.329 15.7374L119 9.53237L108.836 8.72302L105 0L100.973 8.72302L91 9.53237L98.6712 15.7374L96.3699 25L105 20.054Z" fill="#FBBC04"/>
<path d="M105 20.054L113.63 25L111.329 15.7374L119 9.53237L108.836 8.72302L105 0L100.973 8.72302L91 9.53237L98.6712 15.7374L96.3699 25L105 20.054Z" fill="#FBBC04"/>
<path d="M137 20.054L145.63 25L143.329 15.7374L151 9.53237L140.932 8.72302L137 0L133.068 8.72302L123 9.53237L130.575 15.7374L128.37 25L137 20.054Z" fill="#FBBC04"/>
<path d="M137 20.054L145.63 25L143.329 15.7374L151 9.53237L140.932 8.72302L137 0L133.068 8.72302L123 9.53237L130.575 15.7374L128.37 25L137 20.054Z" fill="#FBBC04"/>
<path d="M169.451 20.054L178.457 25L176.082 15.7374L184 9.53237L173.509 8.72302L169.451 0L165.392 8.72302L155 9.53237L162.918 15.7374L160.543 25L169.451 20.054Z" fill="#FBBC04"/>
<path d="M169.451 20.054L178.457 25L176.082 15.7374L184 9.53237L173.509 8.72302L169.451 0L165.392 8.72302L155 9.53237L162.918 15.7374L160.543 25L169.451 20.054Z" fill="#FBBC04"/>
<path d="M202 20.054L210.63 25L208.425 15.7374L216 9.53237L206.027 8.72302L202 0L198.164 8.72302L188 9.53237L195.671 15.7374L193.37 25L202 20.054Z" fill="#FBBC04"/>
<path d="M58.448 46L62.656 34.32H65.312L69.648 46H68.032L64.112 35.344L64.88 35.728H62.992L63.808 35.344L60.016 46H58.448ZM60.96 42.512L61.488 41.104H66.528L67.056 42.512H60.96ZM74.272 46.256C73.2587 46.256 72.48 45.9253 71.936 45.264C71.392 44.6027 71.12 43.648 71.12 42.4V37.44H72.656V42.704C72.656 43.376 72.8373 43.904 73.2 44.288C73.5627 44.6613 74.0533 44.848 74.672 44.848C75.312 44.848 75.8347 44.6453 76.24 44.24C76.6453 43.824 76.848 43.2587 76.848 42.544V37.44H78.384V46H77.168V42.336H77.36C77.36 43.1787 77.248 43.8933 77.024 44.48C76.8 45.056 76.464 45.4987 76.016 45.808C75.5787 46.1067 75.0187 46.256 74.336 46.256H74.272ZM83.9989 46.256C82.8789 46.256 82.0095 46.016 81.3909 45.536C80.7829 45.056 80.4682 44.4 80.4469 43.568H81.8869C81.9082 43.8987 82.0735 44.2133 82.3829 44.512C82.7029 44.8 83.2415 44.944 83.9989 44.944C84.6815 44.944 85.2042 44.8107 85.5669 44.544C85.9295 44.2667 86.1109 43.9307 86.1109 43.536C86.1109 43.184 85.9775 42.912 85.7109 42.72C85.4442 42.5173 85.0122 42.384 84.4149 42.32L83.4869 42.224C82.6762 42.1387 82.0149 41.8987 81.5029 41.504C80.9909 41.0987 80.7349 40.5333 80.7349 39.808C80.7349 39.264 80.8735 38.8 81.1509 38.416C81.4282 38.0213 81.8122 37.7227 82.3029 37.52C82.7935 37.3067 83.3589 37.2 83.9989 37.2C84.9589 37.2 85.7375 37.4133 86.3349 37.84C86.9322 38.2667 87.2415 38.9013 87.2629 39.744H85.8229C85.8122 39.4027 85.6522 39.1147 85.3429 38.88C85.0442 38.6347 84.5962 38.512 83.9989 38.512C83.4015 38.512 82.9482 38.6347 82.6389 38.88C82.3295 39.1253 82.1749 39.4347 82.1749 39.808C82.1749 40.128 82.2815 40.384 82.4949 40.576C82.7189 40.768 83.0815 40.8907 83.5829 40.944L84.5109 41.04C85.4282 41.136 86.1642 41.392 86.7189 41.808C87.2735 42.2133 87.5509 42.7893 87.5509 43.536C87.5509 44.0693 87.3962 44.544 87.0869 44.96C86.7882 45.3653 86.3722 45.6853 85.8389 45.92C85.3055 46.144 84.6922 46.256 83.9989 46.256ZM92.849 49.328C92.4543 49.328 92.0543 49.312 91.649 49.28C91.2543 49.248 90.8757 49.2053 90.513 49.152V47.856C90.897 47.9093 91.297 47.952 91.713 47.984C92.1397 48.0267 92.5397 48.048 92.913 48.048C93.6917 48.048 94.3103 47.9413 94.769 47.728C95.2383 47.5253 95.5743 47.2 95.777 46.752C95.9903 46.3147 96.097 45.7493 96.097 45.056V43.424L96.609 42.208C96.577 43.072 96.3957 43.792 96.065 44.368C95.7343 44.9333 95.3023 45.36 94.769 45.648C94.2463 45.9253 93.665 46.064 93.025 46.064C92.4277 46.064 91.8783 45.952 91.377 45.728C90.8863 45.4933 90.4597 45.1733 90.097 44.768C89.745 44.3627 89.4677 43.8987 89.265 43.376C89.073 42.8427 88.977 42.2827 88.977 41.696V41.408C88.977 40.8107 89.0783 40.256 89.281 39.744C89.4837 39.2213 89.7663 38.768 90.129 38.384C90.4917 38 90.9237 37.7013 91.425 37.488C91.937 37.2747 92.497 37.168 93.105 37.168C93.8197 37.168 94.449 37.3227 94.993 37.632C95.537 37.9307 95.9637 38.3733 96.273 38.96C96.593 39.536 96.769 40.2453 96.801 41.088L96.353 41.104V37.456H97.569V44.992C97.569 46.016 97.409 46.8427 97.089 47.472C96.7797 48.112 96.2783 48.5813 95.585 48.88C94.9023 49.1787 93.9903 49.328 92.849 49.328ZM93.313 44.656C93.825 44.656 94.289 44.544 94.705 44.32C95.1317 44.096 95.4677 43.776 95.713 43.36C95.969 42.9333 96.097 42.4267 96.097 41.84V41.104C96.097 40.528 95.9637 40.0427 95.697 39.648C95.441 39.2533 95.105 38.9547 94.689 38.752C94.273 38.5493 93.8197 38.448 93.329 38.448C92.7743 38.448 92.2837 38.576 91.857 38.832C91.4303 39.088 91.0997 39.4507 90.865 39.92C90.6303 40.3787 90.513 40.9227 90.513 41.552C90.513 42.1813 90.6303 42.7307 90.865 43.2C91.1103 43.6693 91.441 44.032 91.857 44.288C92.2837 44.5333 92.769 44.656 93.313 44.656ZM103.886 46.288C103.139 46.288 102.494 46.16 101.95 45.904C101.406 45.648 100.963 45.312 100.622 44.896C100.281 44.4693 100.025 43.9947 99.8539 43.472C99.6939 42.9493 99.6139 42.416 99.6139 41.872V41.584C99.6139 41.0293 99.6939 40.4907 99.8539 39.968C100.025 39.4453 100.281 38.976 100.622 38.56C100.963 38.1333 101.395 37.7973 101.918 37.552C102.451 37.296 103.075 37.168 103.79 37.168C104.718 37.168 105.481 37.3707 106.078 37.776C106.686 38.1707 107.134 38.6827 107.422 39.312C107.721 39.9413 107.87 40.6133 107.87 41.328V42.016H100.286V40.864H106.75L106.398 41.488C106.398 40.88 106.302 40.3573 106.11 39.92C105.918 39.472 105.63 39.1253 105.246 38.88C104.862 38.6347 104.377 38.512 103.79 38.512C103.182 38.512 102.675 38.6507 102.27 38.928C101.875 39.2053 101.577 39.584 101.374 40.064C101.182 40.544 101.086 41.0987 101.086 41.728C101.086 42.336 101.182 42.8853 101.374 43.376C101.577 43.856 101.886 44.24 102.302 44.528C102.718 44.8053 103.246 44.944 103.886 44.944C104.558 44.944 105.102 44.7947 105.518 44.496C105.945 44.1973 106.201 43.8507 106.286 43.456H107.726C107.609 44.0427 107.374 44.5493 107.022 44.976C106.67 45.4027 106.227 45.728 105.694 45.952C105.161 46.176 104.558 46.288 103.886 46.288ZM109.3 46V44.288L113.956 38.704V38.96L113.7 38.576L113.908 38.672H109.236V37.456H115.316V39.168L110.66 44.752V44.528L110.948 44.928L110.724 44.784H115.572V46H109.3ZM121.05 46.288C120.304 46.288 119.658 46.16 119.114 45.904C118.57 45.648 118.128 45.312 117.786 44.896C117.445 44.4693 117.189 43.9947 117.018 43.472C116.858 42.9493 116.778 42.416 116.778 41.872V41.584C116.778 41.0293 116.858 40.4907 117.018 39.968C117.189 39.4453 117.445 38.976 117.786 38.56C118.128 38.1333 118.56 37.7973 119.082 37.552C119.616 37.296 120.24 37.168 120.954 37.168C121.882 37.168 122.645 37.3707 123.242 37.776C123.85 38.1707 124.298 38.6827 124.586 39.312C124.885 39.9413 125.034 40.6133 125.034 41.328V42.016H117.45V40.864H123.914L123.562 41.488C123.562 40.88 123.466 40.3573 123.274 39.92C123.082 39.472 122.794 39.1253 122.41 38.88C122.026 38.6347 121.541 38.512 120.954 38.512C120.346 38.512 119.84 38.6507 119.434 38.928C119.04 39.2053 118.741 39.584 118.538 40.064C118.346 40.544 118.25 41.0987 118.25 41.728C118.25 42.336 118.346 42.8853 118.538 43.376C118.741 43.856 119.05 44.24 119.466 44.528C119.882 44.8053 120.41 44.944 121.05 44.944C121.722 44.944 122.266 44.7947 122.682 44.496C123.109 44.1973 123.365 43.8507 123.45 43.456H124.89C124.773 44.0427 124.538 44.5493 124.186 44.976C123.834 45.4027 123.392 45.728 122.858 45.952C122.325 46.176 121.722 46.288 121.05 46.288ZM127.471 46V37.456H129.007V46H127.471ZM126.159 38.672V37.456H129.007V38.672H126.159ZM127.903 36.08C127.562 36.08 127.306 35.9893 127.135 35.808C126.975 35.6267 126.895 35.3973 126.895 35.12C126.895 34.8427 126.975 34.6133 127.135 34.432C127.306 34.2507 127.562 34.16 127.903 34.16C128.244 34.16 128.495 34.2507 128.655 34.432C128.826 34.6133 128.911 34.8427 128.911 35.12C128.911 35.3973 128.826 35.6267 128.655 35.808C128.495 35.9893 128.244 36.08 127.903 36.08ZM135.481 46.288C134.745 46.288 134.105 46.16 133.561 45.904C133.028 45.648 132.585 45.3067 132.233 44.88C131.881 44.4427 131.614 43.9627 131.433 43.44C131.262 42.9173 131.177 42.3947 131.177 41.872V41.584C131.177 41.04 131.262 40.5067 131.433 39.984C131.614 39.4613 131.881 38.992 132.233 38.576C132.596 38.1493 133.044 37.808 133.577 37.552C134.11 37.296 134.734 37.168 135.449 37.168C136.164 37.168 136.804 37.3013 137.369 37.568C137.945 37.8347 138.404 38.2133 138.745 38.704C139.097 39.184 139.294 39.7547 139.337 40.416H137.865C137.79 39.8827 137.545 39.44 137.129 39.088C136.713 38.7253 136.153 38.544 135.449 38.544C134.841 38.544 134.334 38.6827 133.929 38.96C133.524 39.2373 133.22 39.616 133.017 40.096C132.814 40.576 132.713 41.12 132.713 41.728C132.713 42.3147 132.814 42.8533 133.017 43.344C133.22 43.824 133.524 44.208 133.929 44.496C134.345 44.7733 134.862 44.912 135.481 44.912C135.961 44.912 136.377 44.8267 136.729 44.656C137.081 44.4853 137.364 44.256 137.577 43.968C137.79 43.68 137.918 43.3547 137.961 42.992H139.433C139.401 43.664 139.204 44.2453 138.841 44.736C138.489 45.2267 138.02 45.6107 137.433 45.888C136.857 46.1547 136.206 46.288 135.481 46.288ZM141.36 46V34.32H142.896V41.296H142.512C142.512 40.4533 142.619 39.728 142.832 39.12C143.056 38.5013 143.397 38.0267 143.856 37.696C144.315 37.3653 144.901 37.2 145.616 37.2H145.68C146.704 37.2 147.477 37.5413 148 38.224C148.523 38.896 148.784 39.8613 148.784 41.12V46H147.248V40.8C147.248 40.1067 147.051 39.568 146.656 39.184C146.272 38.8 145.771 38.608 145.152 38.608C144.469 38.608 143.92 38.8373 143.504 39.296C143.099 39.744 142.896 40.336 142.896 41.072V46H141.36ZM151.435 46V37.456H152.651V41.12H152.459C152.459 40.2773 152.571 39.568 152.795 38.992C153.029 38.4053 153.381 37.9627 153.851 37.664C154.32 37.3547 154.912 37.2 155.627 37.2H155.691C156.768 37.2 157.563 37.536 158.075 38.208C158.597 38.88 158.859 39.8507 158.859 41.12V46H157.323V40.8C157.323 40.1387 157.136 39.6107 156.763 39.216C156.389 38.8107 155.877 38.608 155.227 38.608C154.555 38.608 154.011 38.816 153.595 39.232C153.179 39.648 152.971 40.2027 152.971 40.896V46H151.435ZM165.141 46.288C164.394 46.288 163.749 46.16 163.205 45.904C162.661 45.648 162.218 45.312 161.877 44.896C161.536 44.4693 161.28 43.9947 161.109 43.472C160.949 42.9493 160.869 42.416 160.869 41.872V41.584C160.869 41.0293 160.949 40.4907 161.109 39.968C161.28 39.4453 161.536 38.976 161.877 38.56C162.218 38.1333 162.65 37.7973 163.173 37.552C163.706 37.296 164.33 37.168 165.045 37.168C165.973 37.168 166.736 37.3707 167.333 37.776C167.941 38.1707 168.389 38.6827 168.677 39.312C168.976 39.9413 169.125 40.6133 169.125 41.328V42.016H161.541V40.864H168.005L167.653 41.488C167.653 40.88 167.557 40.3573 167.365 39.92C167.173 39.472 166.885 39.1253 166.501 38.88C166.117 38.6347 165.632 38.512 165.045 38.512C164.437 38.512 163.93 38.6507 163.525 38.928C163.13 39.2053 162.832 39.584 162.629 40.064C162.437 40.544 162.341 41.0987 162.341 41.728C162.341 42.336 162.437 42.8853 162.629 43.376C162.832 43.856 163.141 44.24 163.557 44.528C163.973 44.8053 164.501 44.944 165.141 44.944C165.813 44.944 166.357 44.7947 166.773 44.496C167.2 44.1973 167.456 43.8507 167.541 43.456H168.981C168.864 44.0427 168.629 44.5493 168.277 44.976C167.925 45.4027 167.482 45.728 166.949 45.952C166.416 46.176 165.813 46.288 165.141 46.288ZM174.474 46.096C173.834 46.096 173.279 46.0053 172.81 45.824C172.351 45.6427 171.994 45.3333 171.738 44.896C171.492 44.448 171.37 43.8453 171.37 43.088V34.864H172.842V43.28C172.842 43.7387 172.964 44.096 173.21 44.352C173.466 44.5973 173.823 44.72 174.282 44.72H175.786V46.096H174.474ZM169.898 38.608V37.456H175.786V38.608H169.898ZM180.863 42.208V40.896H186.815V42.208H180.863ZM191.958 43.232V41.344L196.806 34.032L197.878 34.88L193.35 41.728L193.494 42.016H201.046V43.232H191.958ZM198.054 46V37.728H199.494V46H198.054ZM202.464 46V44.048H204.32V46H202.464ZM210.283 34C211.136 34 211.846 34.1493 212.411 34.448C212.987 34.7467 213.44 35.1573 213.771 35.68C214.112 36.192 214.352 36.784 214.491 37.456C214.64 38.128 214.715 38.832 214.715 39.568V40.336C214.715 42.1813 214.256 43.6053 213.339 44.608C212.422 45.6 211.094 46.096 209.355 46.096C208.939 46.096 208.587 46.0853 208.299 46.064C208.011 46.0427 207.696 46.0107 207.355 45.968V44.656C207.707 44.6987 208.032 44.7307 208.331 44.752C208.63 44.7733 208.992 44.784 209.419 44.784C210.39 44.784 211.158 44.6027 211.723 44.24C212.288 43.8773 212.694 43.36 212.939 42.688C213.184 42.0053 213.307 41.184 213.307 40.224V39.504L213.691 38.08C213.68 38.9227 213.515 39.6213 213.195 40.176C212.886 40.7307 212.454 41.1467 211.899 41.424C211.355 41.7013 210.726 41.84 210.011 41.84C209.179 41.84 208.475 41.6747 207.899 41.344C207.323 41.0027 206.886 40.5387 206.587 39.952C206.299 39.3653 206.155 38.6987 206.155 37.952C206.155 37.1947 206.31 36.5173 206.619 35.92C206.928 35.3227 207.387 34.8533 207.995 34.512C208.614 34.1707 209.376 34 210.283 34ZM210.283 35.344C209.696 35.344 209.206 35.456 208.811 35.68C208.416 35.904 208.118 36.2133 207.915 36.608C207.723 36.992 207.627 37.44 207.627 37.952C207.627 38.464 207.723 38.9173 207.915 39.312C208.107 39.7067 208.39 40.016 208.763 40.24C209.147 40.4533 209.616 40.56 210.171 40.56C210.715 40.56 211.2 40.4587 211.627 40.256C212.064 40.0533 212.406 39.76 212.651 39.376C212.896 38.9813 213.019 38.5013 213.019 37.936C213.019 37.4667 212.923 37.0347 212.731 36.64C212.539 36.2453 212.24 35.9307 211.835 35.696C211.43 35.4613 210.912 35.344 210.283 35.344Z" fill="#DCDCDC"/>
</svg>
