<svg width="24" height="24" viewBox="0 0 24 24" fill="none" xmlns="http://www.w3.org/2000/svg">
<path d="M23.3886 12.2604C23.3886 11.4802 23.3145 10.7372 23.2035 9.99414H11.9531V14.4895H18.3925C18.0964 15.9755 17.2453 17.2015 15.987 18.056V21.0653H19.8358C22.0933 18.9848 23.3886 15.9012 23.3886 12.2604Z" fill="#4285F4"/>
<path d="M11.9551 23.9993C15.1748 23.9993 17.8764 22.9219 19.8378 21.1015L15.989 18.0922C14.9158 18.7981 13.5465 19.2439 11.9181 19.2439C8.80948 19.2439 6.14491 17.1263 5.21971 14.2656H1.29688V17.3492C3.25829 21.2873 7.29215 23.9622 11.9551 23.9622V23.9993Z" fill="#34A853"/>
<path d="M5.25512 14.2665C4.99607 13.5607 4.88504 12.7805 4.88504 11.9631C4.88504 11.1458 5.03307 10.4028 5.25512 9.65974V6.57617H1.29528C0.444095 8.24799 0 10.0684 0 12.0003C0 13.9322 0.481103 15.7526 1.29528 17.3873L5.25512 14.2665Z" fill="#FBBC04"/>
<path d="M11.9551 4.75539C13.7315 4.75539 15.2859 5.34981 16.5441 6.53866L19.9489 3.12072C17.8764 1.18885 15.1748 0 11.9551 0C7.29215 0 3.25829 2.67491 1.29688 6.61296L5.25672 9.69654C6.21893 6.83587 8.84649 4.71824 11.9551 4.75539Z" fill="#EA4335"/>
</svg>
