<svg width="48" height="48" viewBox="0 0 48 48" fill="none" xmlns="http://www.w3.org/2000/svg">
<path fill-rule="evenodd" clip-rule="evenodd" d="M24.627 17.2306C25.5385 17.3537 26.2653 17.4285 26.8135 18.1808C27.3368 18.8991 27.4065 19.6054 27.0977 20.4386C26.9058 20.9564 26.785 21.0474 26.2461 21.5675C25.3945 21.7216 25.3942 21.7215 24.3633 21.7394L23.2471 21.7677C22.8579 21.7719 22.4683 21.7755 22.0791 21.7795C21.6867 21.7874 21.2938 21.7959 20.9014 21.8048C19.9405 21.8248 18.9796 21.8394 18.0186 21.8498L18.3711 22.2746C19.3693 23.5266 19.96 24.5174 20.2881 26.0841L21.0039 26.0705C21.8811 26.056 22.7585 26.0453 23.6358 26.0373C24.2018 26.0309 24.768 26.0197 25.334 26.0089L26.4112 26.0011L27.4063 25.9875C28.2319 26.0836 28.2325 26.0836 28.7559 26.4611C29.2581 27.1806 29.5548 27.7669 29.3672 28.6242C29.2199 29.2019 28.3712 30.3544 26.1553 30.3449L25.0752 30.342L23.9414 30.3351C23.5613 30.3337 23.181 30.3324 22.8008 30.3312C21.8688 30.3279 20.9369 30.3233 20.0049 30.3175L19.9512 31.0402C19.6525 32.2975 19.098 32.9722 18.3028 33.9865C19.8369 34.0075 21.3711 34.0232 22.9053 34.0334C23.4265 34.0376 23.9477 34.0436 24.4688 34.0509C25.221 34.0613 25.9734 34.0658 26.7256 34.0695L27.4229 34.0822C29.4137 34.0828 30.9447 33.7843 32.4268 32.4035C33.2238 31.3255 33.6165 30.1137 34.0254 28.8517L34.0332 28.8293L34.2881 28.0744C34.5547 27.2827 34.8161 26.489 35.0772 25.6955C35.3414 24.9045 35.6067 24.1139 35.8721 23.3234C36.0363 22.833 36.2001 22.3418 36.3623 21.8507C36.8346 20.4253 37.3402 19.0184 37.8789 17.6164H39.0772L39.9317 20.2228L40.1748 20.9328C40.3439 21.4293 40.5101 21.927 40.6748 22.425C40.9267 23.1856 41.186 23.9435 41.4463 24.7013C41.6096 25.1839 41.7722 25.6667 41.9346 26.1496L42.169 26.8361C42.5259 27.9229 42.836 28.8762 42.7022 30.0353C42.4185 30.3175 42.4182 30.3177 41.709 30.3498L40.7764 30.3449L39.7715 30.342L38.712 30.3351L37.6495 30.3312C36.7803 30.3279 35.9112 30.3233 35.042 30.3175L34.9248 30.9836C34.7348 31.8321 34.4296 32.27 33.8887 32.9455L33.418 33.5421L33.0557 33.9865C35.6093 34.3603 38.1591 34.2999 40.7334 34.2863C41.2002 34.2849 41.6671 34.2835 42.1338 34.2824C43.2689 34.2793 44.4041 34.2745 45.5391 34.2687C44.5719 38.5208 40.2249 42.2025 36.6905 44.465C31.1954 47.721 24.6202 48.804 18.3555 47.3927C11.6282 45.6723 6.43647 41.5478 2.87699 35.675C2.47052 34.9351 2.13891 34.2123 1.84672 33.422L2.82133 33.6984C4.12067 34.02 5.35522 34.0775 6.68949 34.0812L7.40922 34.0871C7.90823 34.0899 8.40727 34.0911 8.90629 34.091C9.66591 34.0922 10.4251 34.1028 11.1846 34.1134C11.6721 34.1151 12.1601 34.1158 12.6475 34.1164L13.3282 34.1291C14.9268 34.116 15.8506 33.7677 17.168 32.8576C18.5768 31.1908 18.9548 29.4731 18.834 27.3537C18.6165 25.54 18.0802 24.1864 16.795 22.8732C14.8339 21.6936 12.7728 21.7528 10.5498 21.7394C8.79259 21.6897 8.79257 21.6899 8.07328 21.0451C7.70741 20.2178 7.69229 19.6401 7.80473 18.7453C8.60012 17.3511 9.52196 17.2988 11.0401 17.2882L11.9893 17.2804L13.0157 17.2765L14.0713 17.2716C14.808 17.269 15.5446 17.2678 16.2813 17.2668C17.4088 17.264 18.5366 17.2551 19.6641 17.2462C20.3797 17.2444 21.096 17.2425 21.8116 17.2414L22.834 17.2306L23.7891 17.2336L24.627 17.2306ZM8.73539 5.23648C18.0267 -1.63389 30.5371 -1.94528 39.584 5.50113L40.3516 6.15836L40.9268 6.64078C44.7811 10.1514 47.7496 15.9465 47.9981 21.1086L47.9991 21.9181L48 22.8068L47.9961 23.7257L48 24.6505L47.9991 25.5363L47.9981 26.3439C47.9616 27.0296 47.9614 27.0301 47.6797 27.8644H47.1153L46.8272 26.9894C46.4696 25.9047 46.1094 24.8209 45.7481 23.7375C45.593 23.2709 45.4388 22.8041 45.2852 22.3371C44.0055 17.6888 44.6359 15.1547 41.1973 13.9503C40.1701 13.5906 39.4501 13.6155 38.4317 13.6027L37.4053 13.5802C36.2821 13.683 35.6545 13.8917 34.7159 14.507C33.7336 15.6936 33.2631 16.9275 32.8135 18.3683L32.625 18.9484C32.4741 19.415 32.3268 19.883 32.1797 20.3507H31.6153L31.5518 19.7082C31.2931 17.7026 30.8863 15.9458 29.3614 14.507C27.9656 13.8159 26.9432 13.5667 25.3594 13.5597L24.7764 13.5539C24.1469 13.5488 23.5172 13.5493 22.8877 13.5509C22.4466 13.5497 21.5645 13.547 21.5645 13.547C21.5347 13.547 19.7133 13.5453 18.7989 13.548C17.6239 13.5512 15.2777 13.5373 15.2657 13.5373C15.2657 13.5373 13.4453 13.5327 12.5352 13.5343C12.106 13.5344 11.2532 13.5286 11.2334 13.5285C11.2334 13.5285 7.09834 13.1868 5.40629 14.7853C3.98085 16.1321 3.68354 17.5515 3.62699 19.4816C3.66561 21.193 3.80927 22.6277 5.03617 23.9093C6.15866 24.8861 6.89368 25.3865 8.40727 25.4289L9.19535 25.4562C9.74341 25.4732 10.2918 25.4891 10.8399 25.5041L11.6309 25.5334L12.3536 25.5539C14.1901 25.6128 14.7694 26.4614 14.7696 27.8644C14.7696 28.9871 13.2305 30.1584 13.2305 30.1584C13.208 30.1582 11.3189 30.1431 10.3379 30.1437L9.52152 30.1535C6.57185 30.1594 4.00468 29.8729 1.7432 27.8644C0.0314534 25.7666 -0.112945 23.8182 0.0517982 21.1857C0.906162 14.9548 3.83931 9.29997 8.73539 5.23648Z" fill="#FDFDFD"/>
</svg>
