<svg width="48" height="48" viewBox="0 0 48 48" fill="none" xmlns="http://www.w3.org/2000/svg">
<path fill-rule="evenodd" clip-rule="evenodd" d="M45.2776 34.6358C45.9067 21.4777 34.5595 6.65983 19.0899 4.82825L19.1163 4.64844C34.3669 4.64844 46.0582 18.7669 46.0582 29.9051C46.0436 32.2237 45.86 33.6603 45.5339 34.7033L45.2776 34.6358ZM44.3536 36.3083C43.3389 37.5481 42.0628 38.7964 40.5677 39.9814C37.8168 24.1626 26.1925 10.3301 17.9747 6.29267L17.7986 6.41537C26.0637 13.1985 35.921 26.3726 39.755 40.602C37.7996 42.0384 35.6874 43.248 33.4589 44.2076C25.6597 35.3135 18.3886 18.1605 16.0454 7.27571L15.8071 7.34744C15.8599 17.9132 23.3614 35.8496 32.5089 44.6017C30.4109 45.4319 28.2299 46.0346 26.0033 46.3993C17.2342 42.9253 10.9919 31.799 10.9919 20.4012C10.9919 12.9607 13.2605 8.35786 13.6994 7.41588L13.5125 7.34178C12.9816 8.14502 9.6582 12.7455 9.6582 20.7783C9.6582 33.6617 16.0119 43.5091 24.4473 46.6102C21.4308 46.942 18.3809 46.7989 15.4088 46.186L15.346 46.3823C16.2483 46.7145 19.3098 47.9996 23.9801 47.9996C34.5434 47.9996 41.6843 41.4364 44.5589 36.4475L44.3536 36.3083Z" fill="#FDFDFD"/>
<path fill-rule="evenodd" clip-rule="evenodd" d="M22.9248 0C14.917 0 5.52734 5.77934 5.52734 11.0622C5.52734 13.1057 7.39621 14.832 11.2656 14.832C20.2466 14.832 28.5914 8.66146 28.5914 3.86327C28.5909 1.33841 26.1666 0 22.9248 0ZM26.1217 3.71414C26.1217 7.75864 18.3551 12.7027 11.8626 12.7027C8.99419 12.7027 7.44435 11.5738 7.44435 9.71104C7.44435 5.6085 15.2993 0.748492 21.3891 0.748492C25.3595 0.748492 26.1217 2.76885 26.1217 3.71414Z" fill="#FDFDFD"/>
<path fill-rule="evenodd" clip-rule="evenodd" d="M2.3355 13.5084C2.11038 13.8977 1.20898 15.6628 1.20898 17.4712C1.20898 20.8253 4.59749 23.9391 10.8313 23.9391C22.8227 23.9391 36.6769 15.1125 36.6769 6.91919C36.6769 3.24138 33.1954 1.24179 30.7777 0.828369L30.7329 0.971838C31.4847 1.20969 34.2389 2.49006 34.2389 5.76624C34.2389 12.2945 22.0063 21.1896 9.8223 21.1896C5.15768 21.1896 2.21893 18.887 2.21893 15.533C2.21893 14.4721 2.4398 13.7731 2.49832 13.5707L2.3355 13.5084Z" fill="#FDFDFD"/>
<path fill-rule="evenodd" clip-rule="evenodd" d="M41.6215 7.53076C41.9504 7.78042 43.9255 9.42653 43.9255 12.5394C43.9255 23.1533 27.2954 33.5902 12.5931 33.5902C3.82548 33.5902 -0.171354 29.2611 0.00562239 25.4172H0.162777C0.506347 27.4135 3.35307 30.9855 11.0268 30.9855C25.7474 30.9855 42.1836 20.1862 42.1836 10.7244C42.1836 9.10137 41.7428 8.09001 41.4936 7.64025L41.6215 7.53076Z" fill="#FDFDFD"/>
<path fill-rule="evenodd" clip-rule="evenodd" d="M47.1797 17.4404C47.2491 17.6665 47.6073 18.6826 47.6073 20.2739C47.6073 32.0809 30.7776 42.1888 16.1405 42.1888C8.60694 42.1888 4.67241 38.5294 3.8418 37.0433L3.9763 36.9442C6.06084 38.7673 10.1667 40.1524 14.9583 40.1524C27.8856 40.1524 47.175 30.3172 47.0028 17.4834L47.1797 17.4404Z" fill="#FDFDFD"/>
</svg>
