<svg width="62" height="48" viewBox="0 0 62 48" fill="none" xmlns="http://www.w3.org/2000/svg">
<path d="M41.7946 39.2284C42.4462 38.4956 43.1079 37.4772 43.7712 36.238C43.118 34.1971 42.4653 31.8997 41.7946 29.3604C41.0285 26.4599 40.1572 23.6469 39.1683 21.0147C35.5338 34.2747 33.9256 38.3372 30.018 41.4486C24.1313 46.1359 14.2254 45.959 12.358 32.0741C10.5664 18.7524 13.3855 3.76298 22.8553 3.95043C30.3008 4.09781 35.5308 11.3334 39.1683 21.0147C39.5663 19.5624 39.9887 17.9998 40.441 16.3161C40.2822 15.7787 40.1358 15.2729 40.0034 14.8052C38.4676 9.78896 34.4717 -0.194476 21.5723 0.00288336C14.3668 0.113126 6.95539 4.01411 3.14539 11.351C-1.57058 20.4326 -1.25903 33.8595 5.96285 40.9552C19.3 54.0594 35.652 46.1359 41.7946 39.2284Z" fill="#FDFDFD"/>
<path d="M54.5897 1.73014H44.354C42.8179 7.41218 41.5408 12.2223 40.441 16.3161C41.7132 20.6218 43.7771 26.9569 45.7238 32.0052C49.3823 23.0519 52.829 9.24594 54.5897 1.73014Z" fill="#FDFDFD"/>
<path d="M59.4525 34.7874C59.1965 41.695 52.542 41.9417 49.7267 39.9681C48.7863 39.3089 47.2932 36.0753 45.7238 32.0052C45.0768 33.5884 44.4233 35.0199 43.7712 36.238C46.6085 45.1023 49.4554 49.128 53.8243 47.1227C59.1991 44.6557 61.2441 38.7346 61.5 34.7874H59.4525Z" fill="#FDFDFD"/>
<path d="M41.7946 29.3604C42.4653 31.8997 43.118 34.1971 43.7712 36.238C44.4233 35.0199 45.0768 33.5884 45.7238 32.0052C43.7771 26.9569 41.7132 20.6218 40.441 16.3161C39.9887 17.9998 39.5663 19.5624 39.1683 21.0147C40.1572 23.6469 41.0285 26.4599 41.7946 29.3604Z" fill="#FDFDFD"/>
</svg>
