<svg width="63" height="48" viewBox="0 0 63 48" fill="none" xmlns="http://www.w3.org/2000/svg">
<path fill-rule="evenodd" clip-rule="evenodd" d="M19.8848 0.237279C20.6774 -0.100637 21.0506 -0.0437684 21.8721 0.196263C22.5217 0.504076 22.5222 0.50351 23.2002 0.898411C23.4537 1.04471 23.7076 1.19104 23.9688 1.34177C24.2412 1.50179 24.5137 1.66213 24.7861 1.82224C25.0707 1.98743 25.3559 2.15253 25.6406 2.31736C26.3625 2.73588 27.0828 3.1573 27.8027 3.57908C28.4106 3.93487 29.0192 4.28931 29.6279 4.64353C30.5103 5.15732 31.3922 5.67178 32.2734 6.18747C34.0149 7.20523 35.7638 8.21098 37.5127 9.21579C38.9481 10.0418 40.3744 10.8815 41.791 11.7392C41.2122 12.3924 40.5528 12.7729 39.7979 13.2031C39.5398 13.3509 39.2815 13.499 39.0156 13.6513C38.743 13.8061 38.4699 13.9615 38.1973 14.1162C37.9264 14.2708 37.6555 14.4253 37.3848 14.5801C36.885 14.8657 36.3851 15.151 35.8848 15.4355C35.2279 15.8022 35.2274 15.8021 34.6318 16.2158C34.0953 16.4921 34.0949 16.4929 33.6426 16.4599C33.0916 16.2247 32.5769 15.9563 32.0547 15.6621C31.8299 15.536 31.6046 15.4102 31.373 15.2802C31.1323 15.1436 30.8916 15.007 30.6436 14.8662C30.3955 14.7263 30.1472 14.5855 29.8916 14.4414C23.1333 10.6178 23.133 10.6176 21.4199 9.47556C20.4781 9.54878 19.7905 9.93704 18.9824 10.4052C18.7277 10.5519 18.4724 10.6985 18.21 10.8496C17.9359 11.0094 17.6617 11.1692 17.3877 11.3291C17.1062 11.4917 16.8246 11.6541 16.543 11.8164C15.1383 12.6272 13.7382 13.4468 12.3398 14.2685C11.9668 14.4874 11.9666 14.4876 11.5859 14.7109C11.1126 14.9892 10.64 15.2694 10.168 15.5498C9.95676 15.6743 9.74495 15.7985 9.52734 15.9267C9.34269 16.0363 9.15802 16.1459 8.96777 16.2588C8.51831 16.4922 8.51806 16.4922 8.06543 16.4922C7.94715 18.3773 7.86437 20.2601 7.8252 22.1484C7.80591 23.0259 7.77549 23.8996 7.7168 24.7754C7.48708 28.1708 7.48746 28.1713 8.29199 31.4316C9.7847 33.0826 11.8402 33.9208 13.8711 34.7373C14.8082 35.1269 15.6524 35.6067 16.5117 36.1416C16.7537 36.282 16.9958 36.4226 17.2451 36.5674C17.7209 36.844 18.1964 37.1211 18.6719 37.3984C18.9066 37.5345 19.1419 37.6703 19.3838 37.8105C19.5864 37.9285 19.7893 38.0464 19.998 38.1679C20.5265 38.4735 20.5264 38.4743 21.1934 38.6748C21.7012 38.4646 21.7015 38.4645 22.2412 38.123C22.5605 37.9335 22.5601 37.9326 22.8857 37.7392C23.116 37.5996 23.3467 37.4603 23.584 37.3164C24.074 37.0247 24.5645 36.7327 25.0547 36.4414C25.3107 36.2884 25.5673 36.1351 25.8311 35.9775C27.1537 35.1892 28.4884 34.4215 29.8223 33.6523C30.0701 33.5086 30.3188 33.3648 30.5742 33.2168C30.8076 33.0819 31.0408 32.9465 31.2812 32.8076C31.486 32.6891 31.6913 32.5713 31.9023 32.4492C32.103 32.3375 32.304 32.2254 32.5107 32.1103C32.7298 31.9696 32.9491 31.8285 33.1748 31.6836C33.8685 31.4312 33.8689 31.431 34.583 31.6718C34.8327 31.8213 35.0826 31.971 35.3398 32.125C35.4754 32.2042 35.6113 32.2836 35.751 32.3652C36.1829 32.6193 36.6098 32.8808 37.0371 33.1426C37.3244 33.3129 37.6125 33.4829 37.9004 33.6523C38.6743 34.1105 39.4431 34.5764 40.2061 35.0527C40.3359 35.1325 40.4658 35.2127 40.5996 35.2949C40.9293 35.5037 41.2482 35.7293 41.5645 35.958V36.4111C40.9668 36.7559 40.3691 37.1005 39.7715 37.4453C39.2432 37.7501 38.7148 38.0555 38.1865 38.3603C36.8478 39.1328 35.5082 39.9043 34.1689 40.6758C31.3107 42.3226 28.4566 43.9774 25.6084 45.6416C25.4061 45.7588 25.2035 45.8763 24.9951 45.997C24.5431 46.2634 24.0948 46.5361 23.6494 46.8134C23.4126 46.9587 23.1756 47.1042 22.9316 47.2539C22.7181 47.3876 22.5042 47.5213 22.2842 47.6592C21.5391 48.0034 21.1004 48.0541 20.2881 47.9541C19.6799 47.6927 19.6794 47.6931 19.0586 47.3232C18.8256 47.1864 18.5926 47.0491 18.3525 46.9082C18.1044 46.7586 17.8562 46.6092 17.6006 46.4551C17.3376 46.2995 17.0739 46.1442 16.8105 45.9892C16.2696 45.6703 15.7297 45.3491 15.1904 45.0273C14.0278 44.3343 12.8564 43.6552 11.6865 42.9746C11.2422 42.7151 10.7978 42.4558 10.3535 42.1963C8.61955 41.1848 6.88031 40.1822 5.14062 39.1806C4.68468 38.9181 4.22893 38.6549 3.77344 38.3916C3.28918 38.1125 2.80357 37.8353 2.31738 37.5595C2.0704 37.4184 1.82283 37.2773 1.56836 37.1318C1.34392 37.0044 1.11991 36.8763 0.888672 36.7451C0.369906 36.4105 0.369897 36.4107 0.143555 35.958C0.120455 35.6423 0.110701 35.3253 0.108398 35.0088C0.106453 34.8099 0.104543 34.6111 0.102539 34.4062C0.101575 34.1874 0.100603 33.9686 0.0996094 33.7431C0.0977584 33.5131 0.095657 33.2829 0.09375 33.0459C0.0881198 32.2822 0.0843164 31.5185 0.0810547 30.7549C0.0798498 30.4945 0.0793664 30.234 0.078125 29.9658C0.0720728 28.5879 0.0677157 27.2099 0.0644531 25.832C0.0606823 24.4072 0.0505893 22.9824 0.0390625 21.5576C0.0314547 20.4635 0.028624 19.3695 0.0273438 18.2754C0.0258211 17.75 0.022012 17.2245 0.0166016 16.6992C0.0094649 15.9644 0.0100384 15.2299 0.0117188 14.4951C0.0080055 14.2776 0.00382578 14.06 0 13.8359C0.00975004 12.7958 0.0232696 12.344 0.68457 11.5039C1.223 11.099 1.74247 10.7411 2.33301 10.4179C2.53617 10.3052 2.7399 10.1923 2.94922 10.0761C3.16705 9.95752 3.38494 9.83899 3.60938 9.71677C4.08097 9.45519 4.55222 9.1929 5.02344 8.93064C5.26532 8.79639 5.50763 8.66173 5.75684 8.52341C6.89792 7.88408 8.02616 7.22333 9.1543 6.5615C11.3454 5.27842 13.5427 4.00609 15.7432 2.73923C16.0864 2.54158 16.0864 2.54146 16.4365 2.33982C16.6604 2.21208 16.8846 2.08471 17.1152 1.9531C17.5909 1.6753 18.0614 1.38764 18.5273 1.09372C18.764 0.946466 19.0013 0.799155 19.2451 0.647435C19.4563 0.512265 19.6672 0.376545 19.8848 0.237279ZM55.6084 18.0556C56.307 18.0569 57.0055 18.0596 57.7041 18.0625C58.1786 18.0636 58.6534 18.0645 59.1279 18.0654C60.2896 18.0679 61.4516 18.0725 62.6133 18.0771C62.283 18.5824 61.9492 19.0857 61.6113 19.5859C61.3405 19.9871 61.0756 20.3924 60.8125 20.7988C60.1633 21.4267 59.7316 21.3844 58.8398 21.3818C58.5447 21.3853 58.2494 21.3889 57.9453 21.3926C57.6342 21.3912 57.3228 21.3889 57.0117 21.3867C53.9744 21.2795 53.9738 21.2796 51.2959 22.5185C50.9345 23.3769 50.8964 24.1802 51.0693 25.0937C51.7709 26.0634 52.422 26.3845 53.5596 26.6777C54.4167 26.7621 55.2732 26.7927 56.1338 26.8193C56.3651 26.8281 56.5967 26.8367 56.835 26.8457C57.4028 26.8669 57.9711 26.8865 58.5391 26.9043V25.3193H52.4277C53.4594 23.2561 53.4596 23.2561 54.4648 22.6035C55.7872 22.3767 57.0764 22.4322 58.4121 22.4902C58.7754 22.4993 59.1386 22.5082 59.502 22.5156C60.3889 22.5339 61.2731 22.5688 62.1602 22.6035V30.0732C60.9811 30.0837 59.8021 30.0922 58.623 30.0976C58.2229 30.0999 57.822 30.1034 57.4219 30.1074C50.9051 30.17 50.905 30.1694 48.4375 27.9267C47.1729 26.5186 46.848 25.1407 46.9033 23.2978C47.1098 21.739 47.7714 20.5386 49.0039 19.5625C50.9217 18.2839 52.6841 18.0422 54.9434 18.0547C55.1628 18.055 55.3824 18.0553 55.6084 18.0556ZM19.8223 18.0322C20.0758 18.0328 20.3296 18.0335 20.5908 18.0342C21.3956 18.0367 22.2011 18.0421 23.0059 18.0478C23.5536 18.0501 24.1016 18.0528 24.6494 18.0547C25.9876 18.0596 27.3259 18.0666 28.6641 18.0761C27.6979 20.5015 27.6978 20.5017 26.627 21.2451C25.1784 21.6168 23.625 21.4995 22.1426 21.4717C21.5283 21.4698 20.9141 21.4704 20.2998 21.4717C19.9187 21.4714 19.5373 21.4692 19.1562 21.4638C18.222 21.4259 18.2217 21.426 17.3467 21.6982C17.4214 21.997 17.4963 22.2957 17.5732 22.6035C17.9498 22.6084 17.9499 22.6082 18.334 22.6133C19.2722 22.6265 20.2104 22.6443 21.1484 22.6631C21.5532 22.6706 21.9585 22.6765 22.3633 22.6816C22.9476 22.6893 23.5319 22.7012 24.1162 22.7138C24.3842 22.716 24.3846 22.7165 24.6582 22.7187C26.1277 22.757 27.4712 22.9811 28.5371 24.0742C29.1549 25.0626 29.2343 25.989 29.1172 27.1299C28.7264 28.237 28.1108 29.0454 27.0801 29.6201C25.4259 30.1351 23.7364 30.1335 22.0205 30.1172C21.7625 30.1165 21.5041 30.1159 21.2383 30.1152C20.4222 30.1127 19.6061 30.1073 18.79 30.1015C18.2334 30.0993 17.6767 30.0965 17.1201 30.0947C15.7625 30.0897 14.4045 30.0828 13.0469 30.0732C13.5058 28.8317 14.0858 27.7915 15.084 26.9043C15.8837 26.6258 16.6261 26.6335 17.4668 26.6552C17.6904 26.6531 17.9141 26.6516 18.1445 26.6494C18.8551 26.6447 19.5649 26.6533 20.2754 26.6631C20.7588 26.6624 21.2422 26.6607 21.7256 26.6582C22.9067 26.6539 24.0875 26.6616 25.2686 26.6777C25.1939 26.3043 25.1199 25.9306 25.043 25.5459C24.6786 25.5409 24.6781 25.5412 24.3066 25.5361C23.3967 25.5229 22.4861 25.505 21.5762 25.4863C21.184 25.4788 20.7916 25.4729 20.3994 25.4677C19.8326 25.4601 19.266 25.4481 18.6992 25.4355C18.4403 25.4334 18.4398 25.4328 18.1758 25.4306C16.6649 25.3902 15.1514 25.1735 14.0654 24.0605C13.357 22.9094 13.3926 21.9011 13.499 20.5664C13.8825 19.6177 14.4531 19.0812 15.3096 18.5293C16.8263 18.0423 18.238 18.017 19.8223 18.0322ZM36.5547 18.0547C36.8143 18.055 37.0743 18.0553 37.3418 18.0556C38.1696 18.0569 38.9974 18.0596 39.8252 18.0625C40.387 18.0636 40.949 18.0645 41.5107 18.0654C42.8869 18.0679 44.2635 18.0723 45.6396 18.0771C45.3091 18.5828 44.976 19.0861 44.6367 19.5859C44.3702 19.9828 44.116 20.3885 43.8691 20.7978C43.1062 21.4911 42.3707 21.406 41.373 21.3974C41.1795 21.4003 40.9856 21.4032 40.7861 21.4062C40.1689 21.4144 39.5519 21.4149 38.9346 21.415C38.3156 21.4199 37.6961 21.4263 37.0771 21.4336C36.6924 21.4376 36.3076 21.4399 35.9229 21.4404C34.9794 21.4193 34.9789 21.4196 34.0957 21.6982C34.1704 21.9969 34.2453 22.2957 34.3223 22.6035C34.7109 22.6084 34.7111 22.6082 35.1074 22.6133C36.0739 22.6264 37.0405 22.6443 38.0068 22.6631C38.4241 22.6706 38.8415 22.6765 39.2588 22.6816C39.8606 22.6893 40.4627 22.7012 41.0645 22.7138C41.2493 22.7153 41.4346 22.7172 41.625 22.7187C43.0549 22.7551 44.1484 23.0162 45.2715 23.9619C45.9709 24.8228 45.9438 25.7125 45.9268 26.7754C45.8332 27.6675 45.5804 28.2889 44.9609 28.9414C43.1265 30.2466 40.9913 30.1048 38.8359 30.0947C38.577 30.0944 38.3176 30.0941 38.0508 30.0937C37.2277 30.0925 36.4041 30.0898 35.5811 30.0869C35.0215 30.0858 34.4619 30.0849 33.9023 30.084C32.5336 30.0815 31.1646 30.078 29.7959 30.0732C29.8649 29.9357 29.9338 29.7979 30.0049 29.6562C30.1808 29.3033 30.3535 28.9486 30.5234 28.5927C31.0425 27.741 31.5255 27.0479 32.5312 26.7773C33.9375 26.5832 35.354 26.6322 36.7695 26.664C37.4123 26.6676 38.0554 26.6677 38.6982 26.6679C39.0967 26.6693 39.4952 26.6728 39.8936 26.6797C40.6626 26.6916 41.283 26.6963 42.0186 26.4511C41.9066 26.0032 41.9063 26.003 41.792 25.5459C41.5478 25.5426 41.3034 25.5395 41.0518 25.5361C40.1389 25.5229 39.2262 25.505 38.3135 25.4863C37.9197 25.4788 37.5257 25.4729 37.1318 25.4677C36.5631 25.4601 35.9944 25.4481 35.4258 25.4355C35.1652 25.4334 35.1651 25.4338 34.8994 25.4316C33.3804 25.391 32.1269 25.0841 30.9414 24.0752C30.1085 23.0656 30.1363 22.046 30.248 20.7929C30.6126 19.6083 31.2363 19.1425 32.2549 18.5254C33.1716 18.104 34.081 18.0483 35.0791 18.0508C35.3145 18.0508 35.5504 18.0507 35.793 18.0508C36.0443 18.0519 36.2957 18.0535 36.5547 18.0547Z" fill="#FDFDFD"/>
</svg>
