<svg width="49" height="48" viewBox="0 0 49 48" fill="none" xmlns="http://www.w3.org/2000/svg">
<path d="M7.69922 0.0481441C7.87565 0.047317 7.87565 0.047317 8.05566 0.0464731C8.24894 0.0465073 8.24894 0.0465073 8.44613 0.0465422C8.58331 0.0460874 8.7205 0.0456326 8.86184 0.0451641C9.32323 0.0437978 9.78461 0.0433232 10.246 0.0428523C10.5762 0.0420774 10.9063 0.0412568 11.2365 0.0403891C12.2286 0.0379457 13.2207 0.0366992 14.2129 0.0355986C14.6805 0.0350561 15.1481 0.0343923 15.6157 0.0337446C17.171 0.0316401 18.7263 0.0298475 20.2816 0.0289515C20.6851 0.0287153 21.0886 0.0284777 21.4922 0.0282358C21.6426 0.028146 21.6426 0.028146 21.7961 0.0280545C23.4191 0.0270287 25.0422 0.0238963 26.6652 0.0198763C28.3329 0.0157795 30.0007 0.0135571 31.6684 0.0131624C32.6042 0.0128951 33.54 0.0118206 34.4758 0.00865224C35.2731 0.00595883 36.0704 0.00497541 36.8678 0.0061742C37.2741 0.00673402 37.6803 0.00624222 38.0866 0.00410087C41.2172 -0.0114698 41.2172 -0.0114698 42.4926 0.559532C42.6907 0.645988 42.6907 0.645988 42.8929 0.734189C43.7711 1.13227 44.4947 1.65381 45.2139 2.29128C45.2898 2.35554 45.3657 2.4198 45.4439 2.48601C46.8212 3.74006 47.6471 5.54926 47.9353 7.36283C47.7757 7.37116 47.7757 7.37116 47.6128 7.37966C46.2357 7.4522 44.8589 7.52967 43.4822 7.61023C43.32 7.61967 43.32 7.61967 43.1545 7.62931C38.6743 7.89184 34.2232 8.33661 29.7751 8.93223C29.6324 8.95124 29.6324 8.95124 29.4868 8.97064C27.5235 9.21888 27.5235 9.21888 25.6931 9.9218C25.5653 9.98771 25.5653 9.98771 25.435 10.055C22.2956 11.6891 19.7327 13.8508 17.6726 16.7285C17.6211 16.799 17.5696 16.8695 17.5165 16.9421C17.3683 17.147 17.3683 17.147 17.2209 17.4349C16.9349 17.7005 16.68 17.6801 16.3013 17.6742C16.2013 17.6697 16.1014 17.6652 15.9984 17.6606C15.6795 17.6504 15.3606 17.6401 15.032 17.6296C14.9708 16.3438 14.9708 16.3438 14.9083 15.032C14.1473 15.0263 13.3863 15.0214 12.6252 15.0184C12.3671 15.0172 12.109 15.0155 11.8508 15.0133C9.2079 14.8888 9.2079 14.8888 6.74435 15.6505C6.14965 16.2773 6.10363 17.0521 6.00217 17.877C6.06939 17.8755 6.1366 17.874 6.20585 17.8724C7.18872 17.8605 8.16325 17.9331 9.14242 18.008C9.32439 18.0216 9.50636 18.0351 9.68833 18.0487C10.0675 18.077 10.4466 18.1056 10.8258 18.1345C11.3098 18.1713 11.7939 18.2075 12.278 18.2434C12.653 18.2713 13.0279 18.2995 13.4028 18.3278C13.5813 18.3412 13.7597 18.3546 13.9382 18.3679C14.1879 18.3865 14.4376 18.4056 14.6873 18.4247C14.8289 18.4354 14.9705 18.4461 15.1164 18.4572C15.5445 18.4972 15.9676 18.555 16.3927 18.6192C16.3227 18.913 16.3227 18.913 16.1453 19.2377C15.7697 19.384 15.7697 19.384 15.2852 19.4841C15.1047 19.5239 14.9242 19.564 14.7438 19.6043C14.6018 19.6351 14.6018 19.6351 14.4569 19.6665C13.9724 19.7764 13.4947 19.9096 13.0161 20.0427C12.8722 20.0824 12.8722 20.0824 12.7253 20.1229C12.5307 20.1767 12.336 20.2306 12.1415 20.2847C11.8421 20.3677 11.5425 20.4499 11.2428 20.5322C11.0505 20.5854 10.8582 20.6387 10.6659 20.6921C10.5773 20.7163 10.4886 20.7405 10.3973 20.7655C9.78195 20.931 9.78195 20.931 9.21828 21.2168C9.0845 21.5058 8.98475 21.7652 8.89358 22.0672C8.8674 22.1506 8.84122 22.234 8.81424 22.3199C8.26486 24.1275 7.96888 26.3128 8.87135 28.0588C10.5012 30.2433 14.4374 30.5486 16.9024 31.1179C29.2325 33.9675 29.2325 33.9675 32.7245 37.8221C33.3208 38.1752 33.9366 38.0911 34.6147 38.0705C34.7535 38.0682 34.8923 38.066 35.0353 38.0637C35.3771 38.0579 35.7187 38.0498 36.0604 38.0395C36.0041 37.9845 35.9478 37.9294 35.8897 37.8727C35.4545 37.4431 35.0432 37.0106 34.6611 36.532C34.2767 36.0535 33.8851 35.5835 33.486 35.1172C32.2293 33.6069 31.1503 31.9908 30.2467 30.2467C30.1754 30.1094 30.1041 29.9721 30.0307 29.8306C29.4979 28.7426 28.789 27.2612 29.1334 26.041C29.7931 25.1075 31.0527 24.8444 32.1059 24.6506C34.0977 24.3235 36.1334 24.2853 38.1466 24.1974C38.5174 24.1808 38.888 24.1617 39.2586 24.143C41.1994 24.0531 43.1387 24.0562 45.0811 24.0589C45.3707 24.0592 45.6603 24.0594 45.9499 24.0596C46.6529 24.0601 47.3559 24.0609 48.059 24.0618C48.0618 26.136 48.064 28.2101 48.0654 30.2842C48.066 31.2472 48.0669 32.2102 48.0683 33.1732C48.0695 34.0124 48.0703 34.8516 48.0706 35.6909C48.0708 36.1353 48.0711 36.5798 48.072 37.0243C48.073 37.5201 48.0731 38.0159 48.073 38.5118C48.0734 38.6596 48.0739 38.8075 48.0743 38.9599C48.0742 39.0946 48.074 39.2294 48.0738 39.3683C48.074 39.5443 48.074 39.5443 48.0742 39.7238C48.059 40.0187 48.059 40.0187 47.9353 40.3898C45.8835 40.4217 43.8319 40.4456 41.7799 40.4603C40.8269 40.4672 39.874 40.4767 38.921 40.4924C38.0891 40.5061 37.2573 40.5148 36.4253 40.5178C35.9859 40.5195 35.5468 40.5236 35.1074 40.5336C32.9286 40.5816 31.3486 40.3868 29.5019 39.1826C28.9907 38.8621 28.4284 38.6529 27.8655 38.4416C27.7482 38.3969 27.6308 38.3523 27.5099 38.3063C24.2989 37.1152 20.9104 36.5097 17.5596 35.8517C17.0787 35.757 16.5981 35.6612 16.1175 35.5654C15.779 35.4985 15.4403 35.4336 15.1014 35.3688C10.3654 34.4405 10.3654 34.4405 8.97089 32.968C9.14163 33.613 9.53799 33.9804 10.0842 34.3286C10.9924 34.7704 11.9403 35.0865 12.9127 35.3545C13.0068 35.3805 13.101 35.4065 13.1979 35.4333C14.452 35.7741 15.719 36.0627 16.984 36.3595C19.4994 36.9519 21.9908 37.5589 24.4329 38.4106C24.6221 38.4755 24.6221 38.4755 24.815 38.5416C29.3254 40.1028 29.3254 40.1028 30.6888 41.1591C31.4495 41.7233 32.1497 41.715 33.0721 41.7083C33.2291 41.7096 33.3861 41.7109 33.5478 41.7122C33.9756 41.7157 34.4033 41.7154 34.8311 41.7144C35.2792 41.714 35.7272 41.7171 36.1752 41.7199C37.0225 41.7245 37.8697 41.726 38.7169 41.7264C39.6819 41.727 40.647 41.731 41.612 41.7354C43.5961 41.7443 45.5801 41.7488 47.5642 41.7504C47.3556 43.1206 46.6142 44.1923 45.7087 45.2139C45.6445 45.2898 45.5802 45.3657 45.514 45.4439C44.3499 46.7224 42.3542 47.8505 40.6084 47.9512C40.5069 47.9514 40.4054 47.9516 40.3008 47.9519C40.1243 47.9527 40.1243 47.9527 39.9443 47.9535C39.7511 47.9535 39.7511 47.9535 39.5539 47.9535C39.4167 47.9539 39.2795 47.9544 39.1382 47.9548C38.6768 47.9562 38.2154 47.9567 37.754 47.9571C37.4238 47.9579 37.0937 47.9587 36.7635 47.9596C35.7714 47.9621 34.7793 47.9633 33.7871 47.9644C33.3195 47.9649 32.8519 47.9656 32.3843 47.9663C30.829 47.9684 29.2737 47.9702 27.7184 47.9711C27.3149 47.9713 26.9114 47.9715 26.5078 47.9718C26.3574 47.9719 26.3574 47.9719 26.2039 47.9719C24.5809 47.973 22.9578 47.9761 21.3348 47.9801C19.6671 47.9842 17.9993 47.9864 16.3316 47.9868C15.3958 47.9871 14.46 47.9882 13.5242 47.9913C12.7269 47.994 11.9296 47.995 11.1322 47.9938C10.7259 47.9933 10.3197 47.9938 9.91337 47.9959C6.78276 48.0115 6.78276 48.0115 5.50739 47.4405C5.30927 47.354 5.30927 47.354 5.10714 47.2658C4.22893 46.8677 3.50527 46.3462 2.78607 45.7087C2.71017 45.6445 2.63427 45.5802 2.55607 45.514C1.27763 44.3499 0.149544 42.3542 0.0488147 40.6084C0.0485935 40.5069 0.0483722 40.4054 0.0481442 40.3008C0.0475928 40.1832 0.0470415 40.0655 0.0464733 39.9443C0.0464961 39.8155 0.0465187 39.6866 0.0465422 39.5539C0.0460874 39.4167 0.045633 39.2795 0.0451644 39.1382C0.0437981 38.6768 0.0433232 38.2154 0.0428523 37.754C0.0420774 37.4238 0.0412568 37.0937 0.0403891 36.7635C0.0379457 35.7714 0.0366993 34.7793 0.0355988 33.7871C0.0350562 33.3195 0.0343926 32.8519 0.0337448 32.3843C0.0316403 30.829 0.0298476 29.2737 0.0289516 27.7184C0.0287154 27.3149 0.0284777 26.9114 0.0282358 26.5078C0.028176 26.4076 0.0281162 26.3073 0.0280546 26.2039C0.0270288 24.5809 0.0238962 22.9578 0.0198762 21.3348C0.0157795 19.6671 0.0135573 17.9993 0.0131626 16.3316C0.0128953 15.3958 0.0118209 14.46 0.00865247 13.5242C0.00595907 12.7269 0.00497545 11.9296 0.00617424 11.1322C0.00673406 10.7259 0.00624222 10.3197 0.00410087 9.91337C-0.0114698 6.78276 -0.0114698 6.78276 0.559532 5.50739C0.617169 5.37531 0.674806 5.24323 0.73419 5.10714C1.13227 4.22893 1.65381 3.50526 2.29128 2.78607C2.35554 2.71017 2.4198 2.63427 2.48601 2.55607C3.7267 1.19349 5.83669 0.0522029 7.69922 0.0481441ZM35.9987 26.0657C35.8263 26.0799 35.654 26.0935 35.4816 26.1065C34.3795 26.1915 33.3308 26.2848 32.5273 27.1079C32.1173 28.0706 32.3535 28.9102 32.7119 29.8567C32.8205 30.1421 32.8205 30.1421 33.0917 30.2467C33.0785 30.1346 33.0652 30.0225 33.0516 29.907C32.8741 28.1038 32.8741 28.1038 33.3391 27.4016C34.0552 26.9258 34.8427 26.8186 35.6816 26.7677C35.8039 26.7588 35.9263 26.7498 36.0523 26.7406C36.4672 26.7113 36.8822 26.6853 37.2974 26.6595C37.5971 26.6392 37.8968 26.6189 38.1966 26.5986C41.3984 26.3905 44.6054 26.282 47.8116 26.1647C47.8116 26.0014 47.8116 25.8381 47.8116 25.6699C43.8672 25.6222 39.9307 25.74 35.9987 26.0657Z" fill="#FDFDFD"/>
<path d="M47.9345 8.6002C48.0582 8.7239 48.0582 8.7239 48.0731 9.08158C48.0728 9.24172 48.0726 9.40186 48.0723 9.56685C48.0723 9.65494 48.0723 9.74303 48.0723 9.83379C48.0723 10.1263 48.0713 10.4188 48.0703 10.7113C48.0701 10.9135 48.0699 11.1158 48.0698 11.3181C48.0693 11.8515 48.0681 12.3849 48.0667 12.9183C48.0655 13.4622 48.0649 14.0061 48.0643 14.5499C48.063 15.6179 48.0608 16.6858 48.0582 17.7537C47.9643 17.7567 47.8703 17.7597 47.7735 17.7627C45.4637 17.8355 43.154 17.9089 40.8442 17.9828C39.7272 18.0186 38.6101 18.0542 37.493 18.0893C36.5168 18.12 35.5406 18.1511 34.5645 18.1825C34.0499 18.1991 33.5353 18.2155 33.0207 18.2315C30.1553 18.3206 27.2943 18.4531 24.4322 18.6196C24.631 18.7987 24.8299 18.9779 25.0287 19.1569C25.1394 19.2567 25.2501 19.3564 25.3642 19.4592C25.5821 19.6547 25.8013 19.8487 26.0214 20.0416C27.0792 20.9688 27.9671 21.9932 28.8157 23.1113C28.8801 23.1957 28.9445 23.2801 29.0109 23.367C29.3266 23.79 29.587 24.1724 29.7512 24.6807C29.3043 24.4916 29.0211 24.2225 28.6766 23.8844C26.5196 21.8637 23.6015 20.5695 20.9513 19.341C20.8262 19.2825 20.701 19.224 20.572 19.1637C20.4605 19.1122 20.3489 19.0608 20.2339 19.0078C19.9792 18.867 19.9792 18.867 19.8555 18.6196C20.6633 15.8546 22.7583 13.6044 25.0734 11.9755C25.228 11.866 25.3809 11.7543 25.5325 11.6407C27.1186 10.4628 28.68 10.1302 30.6144 9.87132C30.9684 9.82296 31.3219 9.7704 31.6754 9.71822C36.9579 8.94139 42.5854 8.21802 47.9345 8.6002Z" fill="#FDFDFD"/>
<path d="M10.5791 22.2061C11.0865 22.3663 11.582 22.5294 12.0707 22.7409C14.118 23.6264 16.3046 24.0174 18.4956 24.3785C20.9028 24.7783 23.5434 25.306 25.2989 27.1539C25.2581 27.2764 25.2173 27.3988 25.1752 27.525C24.9205 27.6294 24.9205 27.6294 24.5824 27.7105C24.4574 27.741 24.3324 27.7714 24.2036 27.8028C24.0675 27.8336 23.9315 27.8644 23.7914 27.8961C23.6507 27.9283 23.5099 27.9605 23.3649 27.9938C19.6115 28.8297 14.4846 29.4892 10.9501 27.525C10.105 26.8334 10.0572 25.9317 9.9253 24.8984C9.88248 24.027 10.0949 22.9324 10.5791 22.2061Z" fill="#FDFDFD"/>
</svg>
