<svg width="42" height="48" viewBox="0 0 42 48" fill="none" xmlns="http://www.w3.org/2000/svg">
<path fill-rule="evenodd" clip-rule="evenodd" d="M4.32796 2.79582C11.3956 -2.65717 21.4346 0.814978 28.1649 5.15227C28.2719 5.22111 28.3789 5.29032 28.4891 5.36125C29.3176 5.90007 30.0971 6.47507 30.8631 7.10051C31.0352 7.23482 31.2072 7.36922 31.3797 7.50285C32.6926 8.53911 33.9405 9.63037 35.1131 10.8261C35.1811 10.8947 35.2491 10.9634 35.3192 11.0341C35.6978 11.4164 36.0763 11.7993 36.4549 12.1816C36.5228 12.2487 36.5911 12.3155 36.661 12.3847C37.0503 12.7724 37.434 13.1651 37.8045 13.5712C37.9033 13.6788 37.9029 13.6792 38.0037 13.789C38.0463 13.8546 38.0888 13.9206 38.1326 13.9882C38.0958 14.0999 38.0593 14.212 38.0213 14.3271C37.9243 14.2273 37.924 14.2266 37.825 14.1249C37.5789 13.8725 37.3318 13.6206 37.0848 13.3691C36.9279 13.209 36.7714 13.0483 36.6151 12.8876C36.013 12.2755 35.3954 11.7088 34.7274 11.1708C34.4718 10.9632 34.2258 10.749 33.9813 10.5282C33.5193 10.1163 33.0307 9.74648 32.533 9.37981C32.44 9.31111 32.3467 9.24257 32.2508 9.1718C27.6228 5.77525 22.1437 2.98509 16.3026 2.99309C16.2273 2.99315 16.1516 2.99302 16.0741 2.99309C14.8066 2.99781 13.6216 3.10611 12.409 3.48723C12.3295 3.51199 12.2497 3.53691 12.1678 3.56242C11.1563 3.88866 10.2475 4.31646 9.38851 4.955C9.28658 5.03029 9.18493 5.10595 9.07991 5.18352C6.67127 7.06497 5.60654 9.76158 5.20589 12.7421C5.1745 13.0447 5.15276 13.3454 5.13851 13.6493C5.1339 13.7476 5.12958 13.8459 5.12484 13.9472C4.97943 20.5161 8.31993 27.3255 12.409 32.2792C12.5536 32.4648 12.6974 32.651 12.8416 32.8368C13.2596 33.3649 13.7053 33.8635 14.159 34.3603C14.3711 34.5943 14.5756 34.8318 14.7782 35.0741C15.6925 36.1356 16.7103 37.1342 17.7772 38.038C17.8954 38.1418 18.0137 38.2455 18.1317 38.3495C20.214 40.1819 22.5029 41.7942 24.9354 43.1191C25.1137 43.223 25.1139 43.223 25.2957 43.329C29.5979 45.7751 35.2406 47.4023 40.1512 46.1073C40.4743 46.0146 40.7932 45.9118 41.1112 45.8027C41.376 45.7159 41.3762 45.7157 41.5994 45.7157V45.9413C37.3174 48.4002 32.5511 48.4564 27.8485 47.1581C24.2308 46.1088 20.7445 44.4021 17.6649 42.2157C17.592 42.1643 17.5193 42.1125 17.4442 42.0595C15.7375 40.8525 14.1274 39.5497 12.6102 38.1073C12.3479 37.8602 12.0811 37.6226 11.8075 37.3886C11.4461 37.0732 11.1401 36.7299 10.8319 36.3622C10.5906 36.0867 10.3348 35.8319 10.0741 35.5751C9.60433 35.1052 9.18026 34.6156 8.76839 34.0937C8.57196 33.8455 8.37342 33.6012 8.17073 33.3583C3.21025 27.38 -0.598247 19.4215 0.0779612 11.4501C0.404949 8.12071 1.72914 4.97373 4.32796 2.79582ZM22.4002 39.6796C21.7603 39.5524 21.7598 39.5527 21.4461 39.2948C21.3774 39.2392 21.3089 39.1832 21.2381 39.1259C21.1664 39.0661 21.0942 39.0068 21.0203 38.9452C20.945 38.8837 20.8695 38.8221 20.7918 38.7587C20.6395 38.6343 20.4874 38.509 20.3358 38.3837C20.0523 38.1505 19.7644 37.923 19.4774 37.6943C18.4165 36.8257 17.4311 35.8841 16.4549 34.9238C16.368 34.8388 16.2808 34.7534 16.1912 34.6659C16.0711 34.5467 16.0709 34.5466 15.9481 34.4247C15.8396 34.3176 15.84 34.3172 15.7293 34.2079C15.5735 34.0256 15.5731 34.0258 15.5731 33.7997C15.4606 33.7625 15.3482 33.7248 15.2323 33.6864C15.0149 33.451 15.0143 33.4513 14.7694 33.1425C14.6784 33.029 14.5877 32.9148 14.494 32.7978C14.4468 32.7387 14.3991 32.68 14.3504 32.6191C14.1265 32.3431 13.8922 32.0757 13.66 31.8066C12.6388 30.5908 11.7388 29.2691 10.908 27.9189C10.8693 27.857 10.8307 27.7951 10.7909 27.7314C10.1179 26.6558 9.52114 25.5578 8.97445 24.414C8.93712 24.3374 8.89962 24.2605 8.86116 24.1816C8.06872 22.5464 7.37391 20.7753 7.03988 18.9863C8.89909 17.7925 10.7725 16.6222 12.659 15.4716C13.3871 15.0271 14.1126 14.5784 14.8338 14.123C15.8081 13.5079 16.7914 12.9074 17.7752 12.3075C18.5426 11.8391 19.3068 11.3661 20.0672 10.8866C22.11 9.60033 22.1105 9.59953 22.4002 9.59953V39.6796ZM23.6795 9.59953C24.0971 9.77507 24.3788 9.92236 24.7391 10.1835C24.8378 10.2547 24.9363 10.326 25.0379 10.3993C25.14 10.4737 25.2423 10.5483 25.3475 10.6249C25.4463 10.6963 25.5455 10.7672 25.6473 10.8407C25.8468 10.985 26.0448 11.1322 26.241 11.2812C26.5785 11.5304 26.579 11.5307 26.9481 11.704C27.8749 12.2162 27.8748 12.2166 28.0633 12.7763C28.1941 13.5108 28.1597 14.2583 28.1434 15.0019C28.143 15.2537 28.1426 15.5059 28.1434 15.7577C28.1438 16.4399 28.1356 17.1216 28.1258 17.8036C28.1171 18.5171 28.1167 19.2308 28.1151 19.9443C28.1112 21.1414 28.1022 22.339 28.0897 23.5361C28.0768 24.7685 28.0673 26.0008 28.0614 27.2333C28.061 27.3093 28.0608 27.3856 28.0604 27.4638C28.0586 27.8454 28.0563 28.2276 28.0545 28.6093C28.04 31.7718 28.0154 34.9342 27.9842 38.0966C27.406 38.3225 26.8274 38.5484 26.2489 38.7734C26.052 38.85 25.8548 38.9269 25.658 39.0038C25.3757 39.1142 25.0929 39.2241 24.8104 39.3339C24.7221 39.3685 24.6337 39.4028 24.5428 39.4384C23.9195 39.6798 23.9192 39.6796 23.6795 39.6796V9.59953ZM29.4403 13.4404C29.9093 13.5572 30.2213 13.7504 30.6112 14.0185C30.7139 14.0881 30.7143 14.0881 30.8192 14.1591C30.9634 14.257 31.107 14.3556 31.2508 14.454C31.4712 14.6049 31.6927 14.7554 31.9139 14.9052C32.0541 15.0005 32.1947 15.0959 32.3348 15.1913C32.4339 15.2587 32.434 15.2594 32.535 15.328C32.7935 15.5054 33.0293 15.6758 33.2518 15.8974C33.2794 16.2352 33.2798 16.2353 33.2791 16.6786C33.2793 16.76 33.2799 16.8419 33.2801 16.9257C33.2805 17.1997 33.2794 17.4739 33.2782 17.748C33.2781 17.9438 33.278 18.14 33.2782 18.3359C33.2782 18.8687 33.2768 19.4016 33.2752 19.9345C33.2738 20.4911 33.2735 21.0479 33.2733 21.6044C33.2726 22.659 33.2706 23.7139 33.2684 24.7685C33.2659 25.9689 33.2646 27.1696 33.2635 28.37C33.2612 30.8398 33.2568 33.3095 33.2518 35.7792C32.7993 35.9527 32.3463 36.1264 31.8934 36.2988C31.7397 36.3573 31.586 36.4157 31.4325 36.4745C31.2108 36.5595 30.9884 36.6441 30.7664 36.7284C30.6333 36.7793 30.5003 36.8304 30.3631 36.8827C30.0011 37.0082 30.0005 37.0084 29.4403 37.12V13.4404ZM34.5594 17.2802C34.8498 17.4433 35.0444 17.5752 35.2938 17.8173C35.3577 17.8791 35.4222 17.9402 35.4881 18.0038C35.5867 18.1002 35.5868 18.1008 35.6873 18.1991C35.754 18.2636 35.8208 18.328 35.8895 18.3945C36.3802 18.8704 36.3807 18.8708 36.4705 18.997C36.4779 19.1937 36.4795 19.3908 36.4793 19.5878C36.4794 19.7162 36.4802 19.8452 36.4803 19.9775C36.48 20.1209 36.4796 20.2647 36.4793 20.4081C36.4793 20.5581 36.4793 20.7083 36.4793 20.8583C36.4794 21.2671 36.4789 21.6761 36.4784 22.0849C36.4779 22.5116 36.4775 22.9385 36.4774 23.3652C36.4771 24.1738 36.4762 24.9823 36.4754 25.7909C36.4746 26.7114 36.4748 27.6322 36.4744 28.5527C36.4736 30.4465 36.4722 32.3405 36.4705 34.2343C36.3233 34.3207 36.1754 34.4068 36.0282 34.4931C35.9054 34.5651 35.9053 34.5652 35.7801 34.6386C35.5501 34.7721 35.3188 34.8993 35.0848 35.0185C35.017 35.0534 34.9496 35.089 34.8797 35.1249C34.7131 35.2 34.7122 35.2001 34.5594 35.2001V17.2802ZM37.7596 19.2001C38.6244 19.6245 38.6251 19.624 38.951 20.0986C39.0552 20.5338 39.0437 20.9524 39.034 21.4032C39.0341 21.5336 39.0339 21.6644 39.034 21.7988C39.0335 22.2292 39.028 22.6594 39.0223 23.0898C39.0209 23.3886 39.0201 23.6874 39.0194 23.9863C39.0171 24.6917 39.0111 25.3971 39.0037 26.1025C38.9955 26.906 38.9908 27.71 38.9871 28.5136C38.9795 30.1659 38.9674 31.8184 38.951 33.4706C38.8043 33.5463 38.6567 33.6209 38.5096 33.6952C38.4278 33.7369 38.3458 33.7783 38.2616 33.8212C38.0345 33.9195 38.0344 33.9198 37.7596 33.9198V19.2001Z" fill="#FDFDFD"/>
</svg>
