<svg width="62" height="44" viewBox="0 0 62 44" fill="none" xmlns="http://www.w3.org/2000/svg">
<g clip-path="url(#clip0_3011_1586)">
<path d="M55.1807 0C58.5526 0.000186984 61.3115 2.8291 61.3115 6.28613V37.6514C61.3115 41.1712 58.5526 43.9998 55.1807 44H6.13086C2.75886 43.9998 0 41.1709 0 37.7139V6.28613C0 2.82909 2.75886 0.000161251 6.13086 0H55.1807ZM6.06836 4.46289C5.14869 4.52576 4.4133 5.34328 4.47461 6.28613V37.7139C4.47461 38.6567 5.21021 39.4746 6.12988 39.4746H55.1787C56.1597 39.4118 56.8953 38.5942 56.834 37.6514V6.22266C56.8339 5.2799 56.0983 4.46289 55.1787 4.46289H6.06836Z" fill="#FDFDFD"/>
<path d="M18.7613 36.3944H8.46094V7.60583H18.7613C26.0573 7.60583 30.0426 12.2573 30.0426 21.8744C30.0426 30.1715 27.2836 36.3315 18.7613 36.3944ZM23.237 22.4401C23.237 16.6573 22.6239 12.1315 16.5541 12.1315H15.2052V31.743H17.5963C21.1524 31.743 23.237 28.7887 23.237 22.4401ZM47.8229 21.3087C50.7045 20.4287 52.6665 17.7258 52.7278 14.583C52.7278 13.9544 52.6052 7.54297 44.696 7.54297H32.9855V36.3315H42.918C45.5544 36.3315 53.7701 36.3315 53.7701 28.223C53.7701 26.2744 52.9118 22.4401 47.8229 21.3087ZM39.6685 12.0687H41.8144C44.8186 12.0687 46.0449 13.1373 46.0449 15.5258C46.0449 17.4115 44.696 18.983 42.3662 18.983H39.7298V12.0687H39.6685ZM42.4275 31.743H39.6685V24.3258H42.6114C46.1062 24.3258 46.9645 26.4001 46.9645 28.0344C46.9645 31.743 43.5311 31.743 42.4275 31.743Z" fill="#FDFDFD"/>
</g>
<defs>
<clipPath id="clip0_3011_1586">
<rect width="61.3115" height="44" fill="white"/>
</clipPath>
</defs>
</svg>
