<svg width="51" height="48" viewBox="0 0 51 48" fill="none" xmlns="http://www.w3.org/2000/svg">
<g clip-path="url(#clip0_3011_1524)">
<path d="M0 24V48H1.16667H2.33333V25.1333V2.27777L26.4444 2.31111L50.5556 2.33333V1.16666V0H25.2778H0V24Z" fill="#FDFDFD"/>
<path d="M18.0555 3.93289C17.2555 4.51067 16.4 5.17733 16.1444 5.42178C15.8777 5.65511 15.6666 5.83289 15.6666 5.81067C15.6666 5.73289 14.6666 6.58845 13.6777 7.48845C11.2889 9.68845 8.0333 13.2218 8.17775 13.4551C8.22219 13.5329 8.21108 13.5551 8.14441 13.5218C7.97775 13.4107 5.2333 16.9996 5.31108 17.2329C5.32219 17.2884 5.28886 17.3329 5.2333 17.3329C5.09997 17.3329 2.9333 20.7551 3.02219 20.8329C3.04441 20.844 3.16664 20.9107 3.29997 20.9884C3.57775 21.1329 3.47775 21.2329 4.37775 19.7884C4.65553 19.3329 4.84441 18.9107 4.81108 18.844C4.77775 18.7773 4.77775 18.7551 4.82219 18.7996C4.86664 18.8329 5.3333 18.2329 5.86664 17.4662C7.27775 15.3773 8.02219 14.4329 9.64441 12.5884C10.1222 12.044 10.4222 11.6107 10.3777 11.5329C10.3333 11.4662 10.3444 11.444 10.4222 11.4884C10.4889 11.5218 10.9777 11.0884 11.5222 10.4996C13.1666 8.73289 16.5444 5.78845 18.6111 4.33289C19.0889 3.99956 19.5777 3.63289 19.7111 3.53289L19.9444 3.344L19.7222 3.12178L19.4889 2.88845L18.0555 3.93289Z" fill="#FDFDFD"/>
<path d="M28.6116 4.10019C26.2671 5.3113 23.7005 6.82241 23.056 7.35575C23.0005 7.4113 22.5338 7.74463 22.0338 8.10019C19.9894 9.55574 17.2894 11.8446 17.4116 12.0335C17.456 12.1002 17.4227 12.1113 17.3449 12.0557C17.0116 11.8557 11.3227 18.1335 11.5227 18.478C11.556 18.5557 11.5449 18.578 11.5005 18.5335C11.256 18.3002 8.07826 23.2224 6.67826 26.0002C5.57826 28.1557 4.26715 31.4113 3.54493 33.7669C3.28937 34.5891 3.24493 34.8335 3.35604 34.9113C3.73381 35.1446 3.85604 35.0002 4.2227 33.8002C5.78937 28.7891 8.18937 24.0113 11.3671 19.6224C16.0116 13.2113 22.6338 7.64463 29.6116 4.33352C30.1671 4.06686 30.6338 3.83352 30.656 3.8113C30.7227 3.75574 30.456 3.22241 30.3671 3.22241C30.3116 3.22241 29.5338 3.62241 28.6116 4.10019Z" fill="#FDFDFD"/>
<path d="M10.478 3.47777C10.4335 3.56666 10.0446 3.94444 9.61132 4.33333C9.18909 4.72222 8.84465 5.08888 8.86687 5.15555C8.88909 5.22222 8.86687 5.24444 8.82243 5.18888C8.71132 5.07777 8.1002 5.66666 8.18909 5.81111C8.22243 5.87777 8.21132 5.88888 8.14465 5.85555C8.03354 5.77777 7.81132 6 6.03354 7.98888C5.4002 8.67777 4.92243 9.3 4.96687 9.36666C5.0002 9.42222 4.97798 9.44444 4.92243 9.41111C4.77798 9.32222 3.74465 10.6222 3.83354 10.7778C3.87798 10.8444 3.95576 10.8667 4.01132 10.8333C4.06687 10.7889 4.11132 10.8222 4.11132 10.8889C4.11132 10.9667 4.44465 10.6333 4.84465 10.1444C6.01132 8.76666 6.12243 8.64444 6.63354 8.07777C6.9002 7.78888 7.08909 7.5 7.05576 7.44444C7.02243 7.38888 7.06687 7.36666 7.15576 7.4C7.25576 7.43333 7.36687 7.36666 7.45576 7.2C7.53354 7.05555 7.68909 6.87777 7.8002 6.79999C7.91132 6.72222 7.97798 6.6 7.93354 6.54444C7.9002 6.48888 7.91132 6.45555 7.96687 6.46666C8.02243 6.48888 8.75576 5.85555 9.58909 5.06666C10.778 3.93333 11.078 3.6 10.9891 3.47777C10.8224 3.28888 10.5891 3.28888 10.478 3.47777Z" fill="#FDFDFD"/>
<path d="M47.5553 4.18889C44.3775 4.41111 40.8997 5.05555 37.922 5.95555C36.5109 6.37778 34.0331 7.27778 33.1664 7.66666C30.5775 8.84444 27.5553 10.4667 27.5553 10.6778C27.5553 10.7333 27.5109 10.7667 27.4664 10.7556C27.322 10.7111 25.0553 12.2111 23.8331 13.1778C20.6775 15.6444 18.5442 17.7556 15.922 21.0111C15.3109 21.7556 12.8886 25.2667 12.8886 25.3889C12.8886 25.4111 12.6442 25.8556 12.3553 26.3556C9.13307 31.8556 6.9553 39.2333 6.71085 45.3889C6.68863 46.1889 6.64418 47.1 6.61085 47.4111L6.56641 48H7.37752H8.18863L8.2553 46.1333C8.54418 38.5444 10.9997 31.0667 15.3775 24.4556C15.7109 23.9444 15.9664 23.4778 15.9331 23.4222C15.8997 23.3667 15.922 23.3444 15.9775 23.3556C16.0331 23.3778 16.4775 22.8778 16.9553 22.2667C18.0553 20.8444 18.7442 20.0444 19.6664 19.0667C21.1109 17.5556 21.9331 16.7889 24.2331 14.8556C24.3886 14.7222 24.722 14.4667 24.9775 14.2889C25.2331 14.1111 25.4109 13.9222 25.3664 13.8556C25.3331 13.8 25.3442 13.7778 25.4109 13.8111C25.4775 13.8556 25.9331 13.5889 26.4331 13.2222C26.9331 12.8556 27.3664 12.5556 27.3997 12.5556C27.4331 12.5556 27.6664 12.4111 27.922 12.2333C28.8664 11.5889 31.9775 9.93333 33.4331 9.3C37.222 7.64444 41.4331 6.47778 45.3886 6C46.4664 5.87778 49.3109 5.66666 50.0886 5.66666H50.5553V4.88889V4.11111L49.3109 4.13333C48.622 4.14444 47.8331 4.16666 47.5553 4.18889Z" fill="#FDFDFD"/>
<path d="M48.4887 10.4444C45.9776 10.5778 43.5553 10.9556 41.0553 11.6111C39.4887 12.0222 37.5553 12.6556 36.8109 13C36.5442 13.1222 36.2887 13.2222 36.2331 13.2222C35.9776 13.2222 32.5109 14.9778 31.122 15.8111C29.6331 16.7111 26.9664 18.6222 25.9998 19.4889C25.2553 20.1667 22.4664 22.9889 21.8664 23.6778C17.4442 28.7556 14.2442 35.8222 13.2887 42.6111C13.0664 44.1778 12.8887 46.1667 12.8887 47.1889V48H14.3331H15.7776V47.0222C15.7887 43.8667 16.5998 39.5778 17.8331 36.1444C18.4109 34.5667 19.6998 31.8111 20.4664 30.5444C21.5664 28.7444 22.5998 27.2111 23.1331 26.6222C23.2442 26.5111 23.2887 26.3556 23.2553 26.2889C23.222 26.2222 23.222 26.2 23.2664 26.2444C23.3109 26.2778 23.722 25.8778 24.1664 25.3444C25.7553 23.4556 28.622 20.8778 30.8331 19.3556C32.0331 18.5333 33.4776 17.6889 34.9664 16.9333C35.7109 16.5556 36.2887 16.2111 36.2442 16.1667C36.1998 16.1111 36.222 16.1111 36.2887 16.1444C36.3553 16.1889 36.9109 16.0222 37.5109 15.7778C41.0553 14.3333 45.0442 13.4667 49.0553 13.2667L50.5553 13.1889V11.7556C50.5553 10.3444 50.5553 10.3333 50.3109 10.3556C50.1664 10.3556 49.3442 10.4 48.4887 10.4444Z" fill="#FDFDFD"/>
<path d="M47.2222 17.6778C45 17.9 42.0889 18.6111 39.6444 19.5444C31.3667 22.6667 24.6778 29.5667 21.7222 38.0222C20.7556 40.7778 20.0111 44.9222 20 47.5222V48H22.0444H24.0778L24.1556 46.7667C24.4 42.9556 25.2333 39.7333 26.8667 36.3333C27.4889 35.0556 28.7889 32.9667 29.5667 32.0111C29.7444 31.8 29.8444 31.5778 29.8111 31.5111C29.7778 31.4444 29.7778 31.4222 29.8222 31.4667C29.8667 31.5 30.2889 31.1 30.7556 30.5778C31.6556 29.5556 32.2444 28.9667 33.2 28.1444C33.5111 27.8778 33.7444 27.6 33.7111 27.5333C33.6556 27.4556 33.6889 27.4444 33.7667 27.5C33.8556 27.5444 34.0222 27.4667 34.2 27.3C35.1333 26.4444 37.7222 24.8556 39.6111 24C42.7556 22.5778 46.6333 21.6667 49.5 21.6667H50.5556V19.6111V17.5556L49.3667 17.5667C48.7 17.5778 47.7444 17.6222 47.2222 17.6778Z" fill="#FDFDFD"/>
<path d="M47.8879 26.0667C40.399 26.9667 33.7546 31.8 30.499 38.6889C29.9768 39.8111 29.1879 42 29.2768 42.0889C29.3102 42.1222 29.2879 42.2 29.2324 42.2667C29.1324 42.4 28.8546 43.5333 28.6657 44.6111C28.599 44.9778 28.5102 45.8889 28.4768 46.6444L28.4102 48H31.0768H33.7435L33.8213 46.9222C33.999 44.3333 34.8435 41.6444 36.1879 39.4C37.9435 36.4444 40.9435 33.8556 44.1102 32.5667C44.4435 32.4333 44.8213 32.2778 44.9435 32.2222C45.6768 31.8778 47.9546 31.4222 49.699 31.2778L50.5546 31.2V28.5444V25.8889L49.8657 25.9C49.4768 25.9111 48.5879 25.9778 47.8879 26.0667Z" fill="#FDFDFD"/>
<path d="M48.4892 35.7222C45.9448 36.1778 43.6892 37.3444 41.8115 39.1556C41.3003 39.6444 40.8892 40.0778 40.8892 40.1333C40.8892 40.1778 40.7559 40.3778 40.5892 40.5667C40.1115 41.1 39.367 42.4111 38.9781 43.3889C38.4559 44.7333 38.2226 45.7222 38.1448 46.9222L38.0781 48H44.3115H50.5559V41.7778V35.5556L49.9226 35.5667C49.567 35.5667 48.9226 35.6444 48.4892 35.7222Z" fill="#FDFDFD"/>
</g>
<defs>
<clipPath id="clip0_3011_1524">
<rect width="50.5556" height="48" fill="white"/>
</clipPath>
</defs>
</svg>
