<svg width="49" height="48" viewBox="0 0 49 48" fill="none" xmlns="http://www.w3.org/2000/svg">
<path d="M18.8099 0.361816L10.1284 4.34084C10.1284 4.34084 13.0222 10.1285 11.2136 11.9371C9.40496 13.7458 3.97902 10.852 3.97902 10.852L0 19.8952L6.14939 22.4273L6.51112 24.2359H10.1284V22.4273L9.57041 21.3113C9.03956 20.2496 9.25818 18.9568 10.0975 18.1174C11.1211 17.0939 12.7804 17.0369 13.8563 18.0053C14.8383 18.889 15.0438 20.3504 14.3436 21.4707L13.7457 22.4273V24.2359H17.7247L23.5124 17.7248V13.7458H26.0445L26.8695 14.2614C28.0489 14.9986 29.5935 14.7354 30.4624 13.6494L30.5237 13.5728C31.2887 12.6165 31.2887 11.2578 30.5237 10.3015C29.6402 9.1972 28.0395 8.99399 26.9081 9.84251L26.0445 10.4902H23.5124V6.51121L18.8099 0.361816Z" fill="#FDFDFD"/>
<path d="M48.1094 18.8099L44.1304 10.1284C44.1304 10.1284 38.3427 13.0222 36.534 11.2136C34.7254 9.40496 37.6192 3.97902 37.6192 3.97902L28.576 0L25.6822 6.51112H23.5118V10.4901H26.0439L26.803 9.94793C27.8261 9.21713 29.2352 9.34065 30.1242 10.2297C31.0783 11.1838 31.1316 12.7245 30.2352 13.733C29.4697 14.5942 28.2215 14.8345 27.1909 14.3192L26.0439 13.7457H23.5118V17.7247L30.7464 23.5124H34.7254V26.0445L34.2403 26.6104C33.303 27.7039 33.4094 29.3455 34.4799 30.3089C35.4535 31.1852 36.9208 31.2197 37.9346 30.3903L37.9875 30.347C39.1744 29.3759 39.3299 27.6183 38.3318 26.4538L37.981 26.0445V23.5124H41.96L48.1094 18.8099Z" fill="#FDFDFD"/>
<path d="M29.2952 47.6351L38.0522 43.8252C38.0522 43.8252 35.2711 37.9825 37.1144 36.2092C38.9578 34.436 44.3266 37.4345 44.3266 37.4345L48.4802 28.4701L41.9578 25.6842L41.9578 23.4998L37.9788 23.4998L37.9788 26.0459L38.4024 26.6137C39.1904 27.6698 39.0507 29.1551 38.0857 30.0524C37.0363 31.0282 35.3847 30.9608 34.426 29.8956C33.5621 28.9357 33.5465 27.4831 34.3896 26.5049L34.7852 26.0459L34.7852 23.4998L30.7852 23.4998L24.5948 30.0249L24.5948 34.0039L22.4244 34.0039L21.9153 33.5966C20.6965 32.6216 18.9188 32.8149 17.938 34.0291C17.0988 35.068 17.0986 36.552 17.937 37.5916C18.9179 38.8078 20.698 39.0024 21.9181 38.0263L22.4244 37.6212L24.5948 37.6212L24.5948 40.8768L29.2952 47.6351Z" fill="#FDFDFD"/>
<path d="M0.419448 29.0479L4.43741 37.7115C4.43741 37.7115 10.212 34.7917 12.0288 36.5922C13.8455 38.3927 10.9761 43.8316 10.9761 43.8316L20.0371 47.77L22.5383 40.8858L24.7086 40.8761L24.694 37.6205L22.4253 37.6204L21.4125 38.1541C20.3554 38.7112 19.0506 38.5097 18.2019 37.6685C17.1789 36.6547 17.1177 35.0067 18.0764 33.9318C18.9585 32.9428 20.4267 32.7375 21.5463 33.4465L22.4253 34.0032L24.5956 34.0032L24.5956 30.0241L17.7227 24.2186L13.7438 24.2365L13.7438 22.4278L14.3449 21.466C15.0505 20.3371 14.8775 18.8696 13.9288 17.9356C12.8232 16.8471 11.0487 16.8471 9.94278 17.9352C8.99342 18.8693 8.82004 20.3375 9.52591 21.4669L10.1265 22.4278L10.088 24.1875L6.47075 24.1875L0.419448 29.0479Z" fill="#FDFDFD"/>
</svg>
