<svg width="20" height="20" viewBox="0 0 20 20" fill="none" xmlns="http://www.w3.org/2000/svg">
<path d="M17.3 3H3.7C2.765 3 2.0085 3.73125 2.0085 4.625L2 14.375C2 15.2688 2.765 16 3.7 16H17.3C18.235 16 19 15.2688 19 14.375V4.625C19 3.73125 18.235 3 17.3 3ZM16.96 6.45312L10.9505 10.0444C10.6785 10.2069 10.3215 10.2069 10.0495 10.0444L4.04 6.45312C3.95477 6.40739 3.88013 6.3456 3.82061 6.27149C3.76108 6.19739 3.7179 6.11251 3.69369 6.02199C3.66948 5.93147 3.66473 5.8372 3.67973 5.74487C3.69474 5.65255 3.72919 5.5641 3.78099 5.48487C3.83279 5.40564 3.90088 5.33728 3.98112 5.28393C4.06136 5.23058 4.15209 5.19335 4.24782 5.17449C4.34355 5.15563 4.44229 5.15554 4.53806 5.17421C4.63383 5.19288 4.72464 5.22993 4.805 5.28312L10.5 8.6875L16.195 5.28312C16.2754 5.22993 16.3662 5.19288 16.4619 5.17421C16.5577 5.15554 16.6564 5.15563 16.7522 5.17449C16.8479 5.19335 16.9386 5.23058 17.0189 5.28393C17.0991 5.33728 17.1672 5.40564 17.219 5.48487C17.2708 5.5641 17.3053 5.65255 17.3203 5.74487C17.3353 5.8372 17.3305 5.93147 17.3063 6.02199C17.2821 6.11251 17.2389 6.19739 17.1794 6.27149C17.1199 6.3456 17.0452 6.40739 16.96 6.45312Z" fill="#DCDCDC"/>
</svg>
