<svg width="12" height="12" viewBox="0 0 12 12" fill="none" xmlns="http://www.w3.org/2000/svg">
<path d="M11.5034 9.11358L11.4798 0.0296146L2.39585 0.0060449C2.3012 -0.00676915 2.20491 0.00090081 2.1135 0.0285358C2.02208 0.0561705 1.93766 0.103126 1.86597 0.16622C1.79427 0.229316 1.73697 0.307078 1.69794 0.394244C1.65891 0.48141 1.63907 0.575943 1.63975 0.671446C1.64043 0.766948 1.66162 0.861189 1.70189 0.947788C1.74216 1.03439 1.80057 1.11132 1.87316 1.17339C1.94575 1.23545 2.03083 1.2812 2.12263 1.30752C2.21444 1.33385 2.31082 1.34014 2.40527 1.32598L9.21235 1.35426L0.194386 10.3722C0.0693611 10.4973 -0.000876097 10.6668 -0.000876434 10.8436C-0.000876434 11.0204 0.0693611 11.19 0.194385 11.315C0.31941 11.4401 0.48898 11.5103 0.665791 11.5103C0.842602 11.5103 1.01217 11.4401 1.13719 11.315L10.1552 2.29707L10.1834 9.10415C10.1841 9.28106 10.2549 9.45048 10.3805 9.57513C10.506 9.69978 10.6759 9.76946 10.8528 9.76883C11.0298 9.76821 11.1992 9.69733 11.3238 9.57179C11.4485 9.44626 11.5181 9.27635 11.5175 9.09944L11.5034 9.11358Z" fill="#EF8F19"/>
</svg>
