<svg width="32" height="32" viewBox="0 0 32 32" fill="none" xmlns="http://www.w3.org/2000/svg">
<path d="M24.0013 17.3307H17.3346V23.9974C17.3346 24.351 17.1942 24.6902 16.9441 24.9402C16.6941 25.1903 16.3549 25.3307 16.0013 25.3307C15.6477 25.3307 15.3085 25.1903 15.0585 24.9402C14.8084 24.6902 14.668 24.351 14.668 23.9974V17.3307H8.0013C7.64768 17.3307 7.30854 17.1903 7.05849 16.9402C6.80844 16.6902 6.66797 16.351 6.66797 15.9974C6.66797 15.6438 6.80844 15.3046 7.05849 15.0546C7.30854 14.8045 7.64768 14.6641 8.0013 14.6641H14.668V7.9974C14.668 7.64377 14.8084 7.30463 15.0585 7.05459C15.3085 6.80454 15.6477 6.66406 16.0013 6.66406C16.3549 6.66406 16.6941 6.80454 16.9441 7.05459C17.1942 7.30463 17.3346 7.64377 17.3346 7.9974V14.6641H24.0013C24.3549 14.6641 24.6941 14.8045 24.9441 15.0546C25.1942 15.3046 25.3346 15.6438 25.3346 15.9974C25.3346 16.351 25.1942 16.6902 24.9441 16.9402C24.6941 17.1903 24.3549 17.3307 24.0013 17.3307Z" fill="#FDFDFD"/>
</svg>
