<svg width="45" height="40" viewBox="0 0 45 40" fill="none" xmlns="http://www.w3.org/2000/svg">
<path d="M0 39.936V33.28H1.152C5.248 33.28 8.10667 32.1707 9.728 29.952C11.4347 27.8187 12.288 24.448 12.288 19.84V16.896C11.8613 16.9813 11.4773 17.024 11.136 17.024C10.7947 17.024 10.4533 17.024 10.112 17.024C7.72267 17.024 5.71733 16.2987 4.096 14.848C2.56 13.312 1.792 11.2213 1.792 8.576C1.792 6.10134 2.51733 4.05334 3.968 2.43201C5.504 0.810673 7.552 0 10.112 0C11.3067 0 12.4587 0.213339 13.568 0.640007C14.7627 1.06667 15.7867 1.792 16.64 2.816C17.5787 3.84 18.304 5.24801 18.816 7.04001C19.4133 8.74668 19.712 10.9653 19.712 13.696V16.384C19.712 21.0773 19.2427 24.9173 18.304 27.904C17.4507 30.976 16.2133 33.408 14.592 35.2C12.9707 36.992 10.9653 38.2293 8.576 38.912C6.272 39.5947 3.712 39.936 0.896 39.936H0ZM24.832 39.936V33.28H25.984C30.08 33.28 32.9387 32.1707 34.56 29.952C36.2667 27.8187 37.12 24.448 37.12 19.84V16.896C36.6933 16.9813 36.3093 17.024 35.968 17.024C35.6267 17.024 35.2853 17.024 34.944 17.024C32.5547 17.024 30.5493 16.2987 28.928 14.848C27.392 13.312 26.624 11.2213 26.624 8.576C26.624 6.10134 27.3493 4.05334 28.8 2.43201C30.336 0.810673 32.384 0 34.944 0C36.1387 0 37.2907 0.213339 38.4 0.640007C39.5947 1.06667 40.6187 1.792 41.472 2.816C42.4107 3.84 43.136 5.24801 43.648 7.04001C44.2453 8.74668 44.544 10.9653 44.544 13.696V16.384C44.544 21.0773 44.0747 24.9173 43.136 27.904C42.2827 30.976 41.0453 33.408 39.424 35.2C37.8027 36.992 35.7973 38.2293 33.408 38.912C31.104 39.5947 28.544 39.936 25.728 39.936H24.832Z" fill="white" fill-opacity="0.5"/>
</svg>
