<svg width="216" height="88" viewBox="0 0 216 88" fill="none" xmlns="http://www.w3.org/2000/svg">
<path d="M24.228 35.8412L34.7557 33.1069L39.1542 47L24.228 35.8412ZM48.456 17.8836H29.9245L24.228 0L18.5315 17.8836H0L14.9983 28.9686L9.30182 46.8522L24.3001 35.7673L33.5298 28.9686L48.456 17.8836Z" fill="#34A853"/>
<path d="M58.2647 39.6562V21.8844H52.0682V18.2125H68.6313V21.8844H62.4348V39.6562H58.2647Z" fill="#DCDCDC"/>
<path d="M70.397 39.6562V23.7056H73.6274V28.905C74.0386 25.3017 75.9377 23.5 79.3247 23.5H79.912V27.0544H78.7961C77.406 27.0544 76.339 27.4265 75.5951 28.1706C74.8511 28.8952 74.4791 29.9527 74.4791 31.3431V39.6562H70.397Z" fill="#DCDCDC"/>
<path d="M87.7822 40.1556C85.9223 40.1556 84.4931 39.5583 83.4946 38.3638C82.4961 37.1496 81.9969 35.3381 81.9969 32.9294V23.6762H86.0789V33.2819C86.0789 34.2806 86.353 35.064 86.9012 35.6319C87.4494 36.1998 88.1934 36.4837 89.1331 36.4837C90.0729 36.4837 90.8364 36.19 91.4238 35.6025C92.0307 34.9954 92.3342 34.1631 92.3342 33.1056V23.6762H96.4162V39.6562H93.1858V35.955C92.5006 38.7554 90.7581 40.1556 87.9585 40.1556H87.7822Z" fill="#DCDCDC"/>
<path d="M106.597 40.1556C104.385 40.1556 102.662 39.6954 101.428 38.775C100.195 37.8546 99.5489 36.5621 99.4902 34.8975H103.161C103.2 35.4654 103.494 35.9746 104.042 36.425C104.61 36.8558 105.481 37.0713 106.656 37.0713C107.635 37.0713 108.408 36.895 108.976 36.5425C109.563 36.19 109.857 35.7102 109.857 35.1031C109.857 34.5744 109.641 34.1533 109.211 33.84C108.78 33.5267 108.026 33.321 106.949 33.2231L105.54 33.0763C103.739 32.8804 102.358 32.3713 101.399 31.5487C100.459 30.7262 99.9894 29.6296 99.9894 28.2587C99.9894 27.4363 100.146 26.7215 100.459 26.1144C100.773 25.4877 101.213 24.959 101.781 24.5281C102.368 24.0973 103.053 23.7742 103.837 23.5587C104.62 23.3433 105.481 23.2356 106.421 23.2356C108.398 23.2356 109.984 23.6665 111.178 24.5281C112.392 25.3898 113.028 26.6529 113.087 28.3175H109.416C109.377 27.7496 109.103 27.2796 108.594 26.9075C108.105 26.5158 107.37 26.32 106.391 26.32C105.51 26.32 104.835 26.4865 104.365 26.8194C103.915 27.1523 103.69 27.5831 103.69 28.1119C103.69 28.621 103.876 29.0127 104.248 29.2869C104.62 29.561 105.246 29.7471 106.127 29.845L107.537 29.9919C109.416 30.1877 110.885 30.7067 111.942 31.5487C113.019 32.3908 113.557 33.5267 113.557 34.9562C113.557 35.7396 113.391 36.4544 113.058 37.1006C112.725 37.7273 112.255 38.2756 111.648 38.7456C111.041 39.196 110.307 39.5387 109.446 39.7738C108.604 40.0283 107.654 40.1556 106.597 40.1556Z" fill="#DCDCDC"/>
<path d="M123.566 39.8619C122.47 39.8619 121.511 39.764 120.688 39.5681C119.886 39.3527 119.22 39.0002 118.691 38.5106C118.163 38.021 117.761 37.3846 117.487 36.6012C117.233 35.8179 117.105 34.8387 117.105 33.6637V26.7019H114.58V23.7056H117.105L117.135 19.2112H120.953L120.923 23.7056H125.857V26.7019H120.923V33.9281C120.923 34.7115 121.129 35.3185 121.54 35.7494C121.971 36.1606 122.578 36.3662 123.361 36.3662H125.857V39.8619H123.566Z" fill="#DCDCDC"/>
<path d="M128.989 45.5312V23.7056H132.22V27.7006C132.729 26.1927 133.531 25.0667 134.628 24.3225C135.724 23.5783 137.007 23.2063 138.475 23.2063C139.591 23.2063 140.609 23.4217 141.529 23.8525C142.449 24.2638 143.232 24.8317 143.879 25.5562C144.544 26.2808 145.053 27.1425 145.406 28.1413C145.758 29.1204 145.934 30.1877 145.934 31.3431V31.96C145.934 33.0958 145.758 34.1729 145.406 35.1912C145.073 36.19 144.583 37.0615 143.937 37.8056C143.291 38.5302 142.508 39.1079 141.588 39.5387C140.668 39.9696 139.63 40.185 138.475 40.185C137.359 40.185 136.331 39.9794 135.391 39.5681C134.471 39.1373 133.698 38.4617 133.071 37.5412V45.5312H128.989ZM137.447 36.7481C138.093 36.7481 138.69 36.6306 139.239 36.3956C139.787 36.141 140.247 35.7885 140.619 35.3381C141.01 34.8877 141.314 34.3492 141.529 33.7225C141.745 33.0958 141.852 32.4104 141.852 31.6662C141.852 30.1583 141.451 28.9442 140.648 28.0238C139.845 27.1033 138.778 26.6431 137.447 26.6431C136.84 26.6431 136.263 26.7508 135.714 26.9663C135.186 27.1621 134.716 27.4558 134.305 27.8475C133.894 28.2392 133.561 28.719 133.306 29.2869C133.071 29.8352 132.954 30.4717 132.954 31.1962V32.3713C132.954 33.0567 133.081 33.6735 133.336 34.2219C133.59 34.7702 133.923 35.2304 134.334 35.6025C134.765 35.9746 135.245 36.2585 135.773 36.4544C136.321 36.6502 136.879 36.7481 137.447 36.7481Z" fill="#DCDCDC"/>
<path d="M151.491 21.7962C150.669 21.7962 150.072 21.5906 149.7 21.1794C149.328 20.7485 149.142 20.21 149.142 19.5637C149.142 18.9175 149.328 18.3888 149.7 17.9775C150.072 17.5662 150.669 17.3606 151.491 17.3606C152.294 17.3606 152.881 17.5662 153.253 17.9775C153.625 18.3888 153.811 18.9175 153.811 19.5637C153.811 20.21 153.625 20.7485 153.253 21.1794C152.881 21.5906 152.294 21.7962 151.491 21.7962ZM149.993 39.6562V26.7606H147.761V23.7056H154.075V39.6562H149.993Z" fill="#DCDCDC"/>
<path d="M158.692 39.6562V21.2675H156.695V18.2125H162.774V39.6562H158.692Z" fill="#DCDCDC"/>
<path d="M174.805 40.2144C173.396 40.2144 172.152 39.9892 171.076 39.5387C169.999 39.0687 169.088 38.4617 168.345 37.7175C167.601 36.9538 167.033 36.0823 166.641 35.1031C166.269 34.1044 166.083 33.0762 166.083 32.0187V31.4019C166.083 30.3052 166.279 29.2575 166.671 28.2587C167.082 27.26 167.659 26.3885 168.403 25.6444C169.147 24.8806 170.058 24.2735 171.134 23.8231C172.231 23.3727 173.454 23.1475 174.805 23.1475C176.156 23.1475 177.37 23.3727 178.447 23.8231C179.524 24.2735 180.434 24.8806 181.178 25.6444C181.922 26.3885 182.49 27.26 182.881 28.2587C183.292 29.2575 183.498 30.3052 183.498 31.4019V32.0187C183.498 33.0762 183.302 34.1044 182.911 35.1031C182.539 36.0823 181.981 36.9538 181.237 37.7175C180.512 38.4617 179.602 39.0687 178.506 39.5387C177.429 39.9892 176.195 40.2144 174.805 40.2144ZM174.805 36.7188C175.549 36.7188 176.205 36.5915 176.773 36.3369C177.341 36.0823 177.82 35.7298 178.212 35.2794C178.603 34.829 178.897 34.3002 179.093 33.6931C179.308 33.086 179.416 32.4202 179.416 31.6956C179.416 30.971 179.308 30.3052 179.093 29.6981C178.897 29.0715 178.594 28.5329 178.183 28.0825C177.791 27.6321 177.311 27.2796 176.744 27.025C176.176 26.7704 175.53 26.6431 174.805 26.6431C174.081 26.6431 173.425 26.7704 172.838 27.025C172.27 27.2796 171.79 27.6321 171.399 28.0825C171.007 28.5329 170.704 29.0715 170.488 29.6981C170.273 30.3052 170.165 30.971 170.165 31.6956C170.165 32.4202 170.263 33.086 170.459 33.6931C170.674 34.3002 170.978 34.829 171.369 35.2794C171.761 35.7298 172.241 36.0823 172.808 36.3369C173.396 36.5915 174.061 36.7188 174.805 36.7188Z" fill="#DCDCDC"/>
<path d="M193.709 39.8619C192.613 39.8619 191.654 39.764 190.831 39.5681C190.029 39.3527 189.363 39.0002 188.834 38.5106C188.306 38.021 187.904 37.3846 187.63 36.6012C187.376 35.8179 187.249 34.8387 187.249 33.6637V26.7019H184.723V23.7056H187.249L187.278 19.2112H191.096L191.066 23.7056H196V26.7019H191.066V33.9281C191.066 34.7115 191.272 35.3185 191.683 35.7494C192.114 36.1606 192.721 36.3662 193.504 36.3662H196V39.8619H193.709Z" fill="#DCDCDC"/>
<rect width="34" height="35" transform="translate(10 53)" fill="#34A853"/>
<path d="M27 76.3019L32.2143 74.9057L34.3929 82L27 76.3019ZM39 67.1321H29.8214L27 58L24.1786 67.1321H15L22.4286 72.7925L19.6071 81.9245L27.0357 76.2641L31.6071 72.7925L39 67.1321Z" fill="#FDFDFD"/>
<rect width="33" height="35" transform="translate(48 53)" fill="#34A853"/>
<path d="M64.5 76.3019L69.497 74.9057L71.5848 82L64.5 76.3019ZM76 67.1321H67.2039L64.5 58L61.7961 67.1321H53L60.1191 72.7925L57.4152 81.9245L64.5342 76.2641L68.9152 72.7925L76 67.1321Z" fill="#FDFDFD"/>
<rect width="33" height="35" transform="translate(85 53)" fill="#34A853"/>
<path d="M101.5 76.3019L106.497 74.9057L108.585 82L101.5 76.3019ZM113 67.1321H104.204L101.5 58L98.7961 67.1321H90L97.1191 72.7925L94.4152 81.9245L101.534 76.2641L105.915 72.7925L113 67.1321Z" fill="#FDFDFD"/>
<rect width="33" height="35" transform="translate(122 53)" fill="#34A853"/>
<path d="M138.5 76.3019L143.497 74.9057L145.585 82L138.5 76.3019ZM150 67.1321H141.204L138.5 58L135.796 67.1321H127L134.119 72.7925L131.415 81.9245L138.534 76.2641L142.915 72.7925L150 67.1321Z" fill="#FDFDFD"/>
<rect width="35" height="35" transform="translate(159 53)" fill="#34A853"/>
<path d="M176 76.3019L181.214 74.9057L183.393 82L176 76.3019ZM188 67.1321H178.821L176 58L173.179 67.1321H164L171.429 72.7925L168.607 81.9245L176.036 76.2641L180.607 72.7925L188 67.1321Z" fill="#FDFDFD"/>
</svg>
