<svg width="30" height="64" viewBox="0 0 30 64" fill="none" xmlns="http://www.w3.org/2000/svg">
<path d="M12.4003 0.173271C10.6601 0.501831 9.97835 0.726635 8.30988 1.52209C4.39884 3.38969 1.58217 6.74446 0.451914 10.8774C0.0572214 12.2435 0.0572214 12.6239 0.00339974 22.0657C-0.0145408 27.9106 0.0392809 32.4586 0.146924 33.3924C0.505735 36.4704 1.86922 39.2546 4.14767 41.5545C5.60085 43.0416 6.96433 43.9927 8.81221 44.8055C11.2342 45.8776 11.9518 46.016 15.1093 45.9987C17.7645 45.9987 18.0875 45.9641 19.4151 45.5145C22.1959 44.598 23.8643 43.595 25.7122 41.7447C27.7395 39.7387 28.798 37.923 29.5874 35.1735C30 33.7555 30 33.6518 30 23.1033C30 12.6758 30 12.4337 29.6053 10.9639C28.9774 8.61206 27.6677 6.29485 25.9634 4.53101C24.1693 2.66341 21.4065 1.07249 18.841 0.432659C17.029 -0.0169487 14.0867 -0.137997 12.4003 0.173271ZM19.128 2.61153C21.7653 3.47616 24.3128 5.36105 25.784 7.55721C26.7169 8.94062 27.5242 10.8601 27.7395 12.2262C27.8651 12.9006 27.9368 17.1892 27.9368 23.2762V33.2194L27.4883 34.7758C26.9142 36.7817 26.2145 38.1478 25.0125 39.5312C22.465 42.5056 19.0383 44.0619 15.0196 44.0619C9.17102 44.0619 4.4706 40.6725 2.60478 35.1216C2.21009 33.9284 2.19215 33.7555 2.13833 23.7258C2.10244 16.9817 2.15627 13.1254 2.28185 12.33C2.90977 8.35267 6.03142 4.56559 9.97835 2.97467C11.898 2.17921 12.9385 2.00629 15.3785 2.07545C17.2802 2.11004 17.8542 2.1965 19.128 2.61153Z" fill="#FDFDFD"/>
<path d="M13.9866 8.25241C13.2174 8.70282 13 9.65767 13 12.4862C13 15.3508 13.2174 16.2876 14.0201 16.72C15.1404 17.3505 16.3277 16.8821 16.7625 15.657C16.9966 15.0084 17.03 14.3959 16.9799 12.1979C16.913 9.26131 16.7625 8.66678 15.9933 8.2344C15.408 7.91011 14.5552 7.92812 13.9866 8.25241Z" fill="#FDFDFD"/>
<path d="M4.3805 54.3769C4.01731 54.7186 3.94468 54.9345 4.03547 55.2403C4.16259 55.6899 4.08995 55.618 8.73876 59.3413C10.6455 60.8523 12.7157 62.5251 13.3513 63.0467C14.1139 63.6582 14.695 64 15.0038 64C15.3125 64 15.8936 63.6582 16.6563 63.0467C17.2918 62.5251 19.3802 60.8523 21.2688 59.3413C25.9176 55.618 25.8449 55.6899 25.972 55.2583C26.1355 54.7366 25.5544 54.0531 24.9551 54.0531C24.483 54.0531 24.1561 54.3049 16.856 60.1867L14.9856 61.6797L13.5873 60.5465C9.12011 56.8951 5.59718 54.1431 5.25215 54.0351C4.94344 53.9452 4.72553 54.0171 4.3805 54.3769Z" fill="#FDFDFD"/>
</svg>
