<svg width="20" height="20" viewBox="0 0 20 20" fill="none" xmlns="http://www.w3.org/2000/svg">
<path fill-rule="evenodd" clip-rule="evenodd" d="M2 9.8625C2.15177 7.72453 3.06048 5.7263 4.54405 4.26823C6.02762 2.81016 7.97644 1.99996 10 2C9.33414 2 8.74047 2.3094 8.2511 2.78285C7.76574 3.25375 7.3558 3.91165 7.02367 4.68855C6.68993 5.47055 6.43 6.38515 6.25431 7.3771C6.11182 8.19781 6.02655 9.02852 5.9992 9.8625H2ZM2 11.1375H5.9992C6.02808 11.9892 6.11392 12.8273 6.25431 13.6229C6.43081 14.6149 6.68993 15.5295 7.02367 16.3115C7.3558 17.0884 7.76574 17.7463 8.2511 18.2172C8.74047 18.6906 9.33414 19 10 19C5.77216 19 2.30726 15.5346 2 11.1375Z" fill="#DCDCDC"/>
<path d="M10 3C9.75785 3 9.44526 3.09518 9.0816 3.40267C8.71529 3.71261 8.34811 4.19826 8.02407 4.85962C7.70179 5.51691 7.44027 6.31005 7.26064 7.19675C7.11975 7.89471 7.0317 8.63498 7 9.38989H13C12.9713 8.65393 12.8842 7.92092 12.7394 7.19675C12.5597 6.31005 12.2991 5.51691 11.9759 4.85962C11.6519 4.19826 11.2856 3.71261 10.9193 3.40349C10.5547 3.09518 10.2421 3 10 3ZM7.26064 12.8033C7.44027 13.6899 7.70179 14.4831 8.02407 15.1404C8.34811 15.8017 8.71529 16.2874 9.08072 16.5965C9.44526 16.9048 9.75873 17 10 17C10.2421 17 10.5547 16.9048 10.9184 16.5973C11.2856 16.2874 11.6519 15.8017 11.9759 15.1404C12.2982 14.4831 12.5597 13.6899 12.7394 12.8033C12.8811 12.1053 12.9692 11.365 13 10.6101H7C7.03082 11.365 7.11887 12.1053 7.26064 12.8033Z" fill="#DCDCDC"/>
<path d="M10 2C10.6667 2 11.2595 2.3094 11.7489 2.78285C12.2343 3.25375 12.645 3.91165 12.9763 4.68855C13.3109 5.47055 13.57 6.38515 13.7457 7.3771C13.8861 8.1727 13.9719 9.0108 14.0008 9.8625H18C17.8482 7.72453 16.9395 5.7263 15.4559 4.26823C13.9724 2.81016 12.0236 1.99996 10 2ZM13.7457 13.6229C13.57 14.6149 13.3109 15.5295 12.9763 16.3115C12.645 17.0884 12.2343 17.7463 11.7489 18.2172C11.2595 18.6906 10.6667 19 10 19C14.2278 19 17.6927 15.5346 18 11.1375H14.0008C13.9735 11.9715 13.8882 12.8022 13.7457 13.6229Z" fill="#DCDCDC"/>
</svg>
